ffmpeg started on 2025-03-25 at 15:58:41
Report written to "D:\Convert\FFMetrics\reports\vmaf_report-6.txt"
Log level: 32
Command line:
ffmpeg -hide_banner -nostdin -r 24000/1001 -i "G:\\\xc0\xed\xe8\xec\xe5\\\xce\xed\xe3\xee\xe8\xed\xe3\xe8\\!_35_\xcb\xe5\xf2\xee_2024\\DreamCast\\\xc0\xeb\xff \xe8\xed\xee\xe3\xe4\xe0 \xea\xee\xea\xe5\xf2\xed\xe8\xf7\xe0\xe5\xf2 \xf1\xee \xec\xed\xee\xe9 \xef\xee-\xf0\xf3\xf1\xf1\xea\xe8\\[DC] Roshidere - 11_Telegram_HEVC.mkv" -r 24000/1001 -i "G:\\\xc0\xed\xe8\xec\xe5\\\xce\xed\xe3\xee\xe8\xed\xe3\xe8\\!_35_\xcb\xe5\xf2\xee_2024\\DreamCast\\\xc0\xeb\xff \xe8\xed\xee\xe3\xe4\xe0 \xea\xee\xea\xe5\xf2\xed\xe8\xf7\xe0\xe5\xf2 \xf1\xee \xec\xed\xee\xe9 \xef\xee-\xf0\xf3\xf1\xf1\xea\xe8\\[DC] Roshidere - 11_Telegram.mp4" -lavfi "[0:v]settb=AVTB,setpts=PTS-STARTPTS,format=pix_fmts=yuv420p10,fps=24000/1001,scale=1920:1080:flags=bicubic[main];[1:v]settb=AVTB,setpts=PTS-STARTPTS,format=pix_fmts=yuv420p,fps=24000/1001,scale=1920:1080:flags=bicubic[ref];[main][ref]libvmaf=eof_action=endall:log_path='D\\:/Convert/FFMetrics/logs/vmaf_logfile-6.txt':n_threads=32:pool=Mean:model=version=vmaf_v0.6.1" -f null -
Input #0, matroska,webm, from 'G:\Аниме\Онгоинги\!_35_Лето_2024\DreamCast\Аля иногда кокетничает со мной по-русски\[DC] Roshidere - 11_Telegram_HEVC.mkv':
  Metadata:
    COMPATIBLE_BRANDS: isomiso2avc1mp41
    MAJOR_BRAND     : isom
    MINOR_VERSION   : 512
    ENCODER         : Lavf61.7.100
  Duration: 00:24:47.02, start: -0.021000, bitrate: 916 kb/s
  Stream #0:0: Video: hevc (Main 10), yuv420p10le(tv, bt709, progressive), 1920x1080 [SAR 1:1 DAR 16:9], 23.98 fps, 23.98 tbr, 1k tbn (default)
      Metadata:
        HANDLER_NAME    : VideoHandler
        VENDOR_ID       : [0][0][0][0]
        ENCODER         : Lavc61.19.100 libx265
        BPS             : 719678
        DURATION        : 00:24:46.526708333
        NUMBER_OF_FRAMES: 35641
        NUMBER_OF_BYTES : 133727670
        _STATISTICS_WRITING_APP: mkvpropedit v66.0.0 ('Josie') 64-bit
        _STATISTICS_WRITING_DATE_UTC: 2025-03-21 11:21:04
        _STATISTICS_TAGS: BPS DURATION NUMBER_OF_FRAMES NUMBER_OF_BYTES
  Stream #0:1: Audio: aac (LC), 48000 Hz, stereo, fltp (default)
      Metadata:
        HANDLER_NAME    : SoundHandler
        VENDOR_ID       : [0][0][0][0]
        ENCODER         : Lavc61.19.100 aac
        BPS             : 192907
        DURATION        : 00:24:47.018000000
        NUMBER_OF_FRAMES: 69705
        NUMBER_OF_BYTES : 35857160
        _STATISTICS_WRITING_APP: mkvpropedit v66.0.0 ('Josie') 64-bit
        _STATISTICS_WRITING_DATE_UTC: 2025-03-21 11:21:04
        _STATISTICS_TAGS: BPS DURATION NUMBER_OF_FRAMES NUMBER_OF_BYTES
Input #1, mov,mp4,m4a,3gp,3g2,mj2, from 'G:\Аниме\Онгоинги\!_35_Лето_2024\DreamCast\Аля иногда кокетничает со мной по-русски\[DC] Roshidere - 11_Telegram.mp4':
  Metadata:
    major_brand     : isom
    minor_version   : 512
    compatible_brands: isomiso2avc1mp41
    encoder         : Lavf61.1.100
  Duration: 00:24:46.99, start: 0.000000, bitrate: 3749 kb/s
  Stream #1:0[0x1](und): Video: h264 (High) (avc1 / 0x31637661), yuv420p(tv, bt709, progressive), 1920x1080 [SAR 1:1 DAR 16:9], 3602 kb/s, 23.98 fps, 23.98 tbr, 24k tbn (default)
      Metadata:
        handler_name    : VideoHandler
        vendor_id       : [0][0][0][0]
        encoder         : Lavc61.3.100 h264_qsv
  Stream #1:1[0x2](und): Audio: aac (HE-AACv2) (mp4a / 0x6134706D), 48000 Hz, stereo, fltp, 144 kb/s (default)
      Metadata:
        handler_name    : SoundHandler
        vendor_id       : [0][0][0][0]
Stream mapping:
  Stream #0:0 (hevc) -> settb:default
  Stream #1:0 (h264) -> settb:default
  libvmaf:default -> Stream #0:0 (wrapped_avframe)
  Stream #0:1 -> #0:1 (aac (native) -> pcm_s16le (native))
Output #0, null, to 'pipe:':
  Metadata:
    COMPATIBLE_BRANDS: isomiso2avc1mp41
    MAJOR_BRAND     : isom
    MINOR_VERSION   : 512
    encoder         : Lavf61.7.100
  Stream #0:0: Video: wrapped_avframe, yuv420p10le(tv, bt709, progressive), 1920x1080 [SAR 1:1 DAR 16:9], q=2-31, 200 kb/s, 23.98 fps, 23.98 tbn
      Metadata:
        encoder         : Lavc61.19.100 wrapped_avframe
  Stream #0:1: Audio: pcm_s16le, 48000 Hz, stereo, s16, 1536 kb/s (default)
      Metadata:
        HANDLER_NAME    : SoundHandler
        VENDOR_ID       : [0][0][0][0]
        _STATISTICS_TAGS: BPS DURATION NUMBER_OF_FRAMES NUMBER_OF_BYTES
        BPS             : 192907
        DURATION        : 00:24:47.018000000
        NUMBER_OF_FRAMES: 69705
        NUMBER_OF_BYTES : 35857160
        _STATISTICS_WRITING_APP: mkvpropedit v66.0.0 ('Josie') 64-bit
        _STATISTICS_WRITING_DATE_UTC: 2025-03-21 11:21:04
        encoder         : Lavc61.19.100 pcm_s16le
frame=   41 fps=0.0 q=-0.0 size=N/A time=00:00:01.71 bitrate=N/A speed=3.29x    frame=   85 fps= 83 q=-0.0 size=N/A time=00:00:03.54 bitrate=N/A speed=3.45x    frame=  133 fps= 86 q=-0.0 size=N/A time=00:00:05.54 bitrate=N/A speed=3.58x    frame=  179 fps= 87 q=-0.0 size=N/A time=00:00:07.46 bitrate=N/A speed=3.62x    frame=  226 fps= 88 q=-0.0 size=N/A time=00:00:09.42 bitrate=N/A speed=3.66x    frame=  274 fps= 88 q=-0.0 size=N/A time=00:00:11.42 bitrate=N/A speed=3.69x    frame=  319 fps= 88 q=-0.0 size=N/A time=00:00:13.30 bitrate=N/A speed=3.69x    frame=  365 fps= 89 q=-0.0 size=N/A time=00:00:15.22 bitrate=N/A speed= 3.7x    frame=  412 fps= 89 q=-0.0 size=N/A time=00:00:17.18 bitrate=N/A speed= 3.7x    frame=  457 fps= 89 q=-0.0 size=N/A time=00:00:19.06 bitrate=N/A speed= 3.7x    frame=  503 fps= 89 q=-0.0 size=N/A time=00:00:20.97 bitrate=N/A speed= 3.7x    frame=  550 fps= 89 q=-0.0 size=N/A time=00:00:22.93 bitrate=N/A speed= 3.7x    frame=  596 fps= 89 q=-0.0 size=N/A time=00:00:24.85 bitrate=N/A speed=3.71x    frame=  641 fps= 89 q=-0.0 size=N/A time=00:00:26.73 bitrate=N/A speed=3.71x    frame=  690 fps= 89 q=-0.0 size=N/A time=00:00:28.77 bitrate=N/A speed=3.72x    frame=  734 fps= 89 q=-0.0 size=N/A time=00:00:30.61 bitrate=N/A speed=3.71x    frame=  776 fps= 89 q=-0.0 size=N/A time=00:00:32.36 bitrate=N/A speed=3.69x    frame=  820 fps= 88 q=-0.0 size=N/A time=00:00:34.20 bitrate=N/A speed=3.68x    frame=  864 fps= 88 q=-0.0 size=N/A time=00:00:36.03 bitrate=N/A speed=3.68x    frame=  908 fps= 88 q=-0.0 size=N/A time=00:00:37.87 bitrate=N/A speed=3.67x    frame=  953 fps= 88 q=-0.0 size=N/A time=00:00:39.74 bitrate=N/A speed=3.67x    frame=  999 fps= 88 q=-0.0 size=N/A time=00:00:41.66 bitrate=N/A speed=3.67x    frame= 1042 fps= 88 q=-0.0 size=N/A time=00:00:43.46 bitrate=N/A speed=3.66x    frame= 1087 fps= 88 q=-0.0 size=N/A time=00:00:45.33 bitrate=N/A speed=3.66x    frame= 1130 fps= 88 q=-0.0 size=N/A time=00:00:47.13 bitrate=N/A speed=3.66x    frame= 1174 fps= 88 q=-0.0 size=N/A time=00:00:48.96 bitrate=N/A speed=3.65x    frame= 1217 fps= 87 q=-0.0 size=N/A time=00:00:50.75 bitrate=N/A speed=3.65x    frame= 1261 fps= 87 q=-0.0 size=N/A time=00:00:52.59 bitrate=N/A speed=3.64x    frame= 1305 fps= 87 q=-0.0 size=N/A time=00:00:54.42 bitrate=N/A speed=3.64x    frame= 1348 fps= 87 q=-0.0 size=N/A time=00:00:56.22 bitrate=N/A speed=3.63x    frame= 1395 fps= 87 q=-0.0 size=N/A time=00:00:58.18 bitrate=N/A speed=3.64x    frame= 1440 fps= 87 q=-0.0 size=N/A time=00:01:00.06 bitrate=N/A speed=3.64x    frame= 1483 fps= 87 q=-0.0 size=N/A time=00:01:01.85 bitrate=N/A speed=3.64x    frame= 1529 fps= 87 q=-0.0 size=N/A time=00:01:03.77 bitrate=N/A speed=3.64x    frame= 1574 fps= 87 q=-0.0 size=N/A time=00:01:05.64 bitrate=N/A speed=3.64x    frame= 1616 fps= 87 q=-0.0 size=N/A time=00:01:07.40 bitrate=N/A speed=3.63x    frame= 1662 fps= 87 q=-0.0 size=N/A time=00:01:09.31 bitrate=N/A speed=3.63x    frame= 1706 fps= 87 q=-0.0 size=N/A time=00:01:11.15 bitrate=N/A speed=3.63x    frame= 1751 fps= 87 q=-0.0 size=N/A time=00:01:13.03 bitrate=N/A speed=3.63x    frame= 1794 fps= 87 q=-0.0 size=N/A time=00:01:14.82 bitrate=N/A speed=3.63x    frame= 1837 fps= 87 q=-0.0 size=N/A time=00:01:16.61 bitrate=N/A speed=3.62x    frame= 1881 fps= 87 q=-0.0 size=N/A time=00:01:18.45 bitrate=N/A speed=3.62x    frame= 1925 fps= 87 q=-0.0 size=N/A time=00:01:20.28 bitrate=N/A speed=3.62x    frame= 1971 fps= 87 q=-0.0 size=N/A time=00:01:22.20 bitrate=N/A speed=3.62x    frame= 2016 fps= 87 q=-0.0 size=N/A time=00:01:24.08 bitrate=N/A speed=3.62x    frame= 2061 fps= 87 q=-0.0 size=N/A time=00:01:25.96 bitrate=N/A speed=3.62x    frame= 2106 fps= 87 q=-0.0 size=N/A time=00:01:27.83 bitrate=N/A speed=3.62x    frame= 2149 fps= 87 q=-0.0 size=N/A time=00:01:29.63 bitrate=N/A speed=3.62x    frame= 2194 fps= 87 q=-0.0 size=N/A time=00:01:31.50 bitrate=N/A speed=3.62x    frame= 2237 fps= 87 q=-0.0 size=N/A time=00:01:33.30 bitrate=N/A speed=3.62x    frame= 2281 fps= 87 q=-0.0 size=N/A time=00:01:35.13 bitrate=N/A speed=3.62x    frame= 2326 fps= 87 q=-0.0 size=N/A time=00:01:37.01 bitrate=N/A speed=3.62x    frame= 2371 fps= 87 q=-0.0 size=N/A time=00:01:38.89 bitrate=N/A speed=3.62x    frame= 2413 fps= 87 q=-0.0 size=N/A time=00:01:40.64 bitrate=N/A speed=3.62x    frame= 2458 fps= 87 q=-0.0 size=N/A time=00:01:42.51 bitrate=N/A speed=3.61x    frame= 2502 fps= 87 q=-0.0 size=N/A time=00:01:44.35 bitrate=N/A speed=3.61x    frame= 2547 fps= 87 q=-0.0 size=N/A time=00:01:46.23 bitrate=N/A speed=3.62x    frame= 2592 fps= 87 q=-0.0 size=N/A time=00:01:48.10 bitrate=N/A speed=3.62x    frame= 2638 fps= 87 q=-0.0 size=N/A time=00:01:50.02 bitrate=N/A speed=3.62x    frame= 2681 fps= 87 q=-0.0 size=N/A time=00:01:51.82 bitrate=N/A speed=3.61x    frame= 2724 fps= 87 q=-0.0 size=N/A time=00:01:53.61 bitrate=N/A speed=3.61x    frame= 2769 fps= 87 q=-0.0 size=N/A time=00:01:55.49 bitrate=N/A speed=3.61x    frame= 2814 fps= 87 q=-0.0 size=N/A time=00:01:57.36 bitrate=N/A speed=3.61x    frame= 2861 fps= 87 q=-0.0 size=N/A time=00:01:59.32 bitrate=N/A speed=3.62x    frame= 2905 fps= 87 q=-0.0 size=N/A time=00:02:01.16 bitrate=N/A speed=3.62x    frame= 2950 fps= 87 q=-0.0 size=N/A time=00:02:03.03 bitrate=N/A speed=3.62x    frame= 2991 fps= 87 q=-0.0 size=N/A time=00:02:04.74 bitrate=N/A speed=3.61x    frame= 3035 fps= 87 q=-0.0 size=N/A time=00:02:06.58 bitrate=N/A speed=3.61x    frame= 3079 fps= 87 q=-0.0 size=N/A time=00:02:08.41 bitrate=N/A speed=3.61x    frame= 3124 fps= 87 q=-0.0 size=N/A time=00:02:10.29 bitrate=N/A speed=3.61x    frame= 3168 fps= 87 q=-0.0 size=N/A time=00:02:12.13 bitrate=N/A speed=3.61x    frame= 3211 fps= 87 q=-0.0 size=N/A time=00:02:13.92 bitrate=N/A speed=3.61x    frame= 3256 fps= 86 q=-0.0 size=N/A time=00:02:15.80 bitrate=N/A speed=3.61x    frame= 3301 fps= 87 q=-0.0 size=N/A time=00:02:17.67 bitrate=N/A speed=3.61x    frame= 3344 fps= 86 q=-0.0 size=N/A time=00:02:19.47 bitrate=N/A speed=3.61x    frame= 3390 fps= 86 q=-0.0 size=N/A time=00:02:21.39 bitrate=N/A speed=3.61x    frame= 3436 fps= 87 q=-0.0 size=N/A time=00:02:23.30 bitrate=N/A speed=3.61x    frame= 3481 fps= 87 q=-0.0 size=N/A time=00:02:25.22 bitrate=N/A speed=3.61x    frame= 3526 fps= 87 q=-0.0 size=N/A time=00:02:27.06 bitrate=N/A speed=3.61x    frame= 3568 fps= 86 q=-0.0 size=N/A time=00:02:28.81 bitrate=N/A speed=3.61x    frame= 3611 fps= 86 q=-0.0 size=N/A time=00:02:30.60 bitrate=N/A speed=3.61x    frame= 3653 fps= 86 q=-0.0 size=N/A time=00:02:32.36 bitrate=N/A speed= 3.6x    frame= 3698 fps= 86 q=-0.0 size=N/A time=00:02:34.23 bitrate=N/A speed= 3.6x    frame= 3743 fps= 86 q=-0.0 size=N/A time=00:02:36.11 bitrate=N/A speed= 3.6x    frame= 3787 fps= 86 q=-0.0 size=N/A time=00:02:37.94 bitrate=N/A speed= 3.6x    frame= 3831 fps= 86 q=-0.0 size=N/A time=00:02:39.78 bitrate=N/A speed= 3.6x    frame= 3877 fps= 86 q=-0.0 size=N/A time=00:02:41.70 bitrate=N/A speed=3.61x    frame= 3923 fps= 86 q=-0.0 size=N/A time=00:02:43.62 bitrate=N/A speed=3.61x    frame= 3967 fps= 86 q=-0.0 size=N/A time=00:02:45.45 bitrate=N/A speed=3.61x    frame= 4011 fps= 86 q=-0.0 size=N/A time=00:02:47.29 bitrate=N/A speed=3.61x    frame= 4057 fps= 86 q=-0.0 size=N/A time=00:02:49.21 bitrate=N/A speed=3.61x    frame= 4103 fps= 87 q=-0.0 size=N/A time=00:02:51.12 bitrate=N/A speed=3.61x    frame= 4146 fps= 86 q=-0.0 size=N/A time=00:02:52.92 bitrate=N/A speed=3.61x    frame= 4191 fps= 86 q=-0.0 size=N/A time=00:02:54.79 bitrate=N/A speed=3.61x    frame= 4235 fps= 86 q=-0.0 size=N/A time=00:02:56.63 bitrate=N/A speed=3.61x    frame= 4278 fps= 86 q=-0.0 size=N/A time=00:02:58.42 bitrate=N/A speed= 3.6x    frame= 4320 fps= 86 q=-0.0 size=N/A time=00:03:00.18 bitrate=N/A speed= 3.6x    frame= 4366 fps= 86 q=-0.0 size=N/A time=00:03:02.09 bitrate=N/A speed= 3.6x    frame= 4410 fps= 86 q=-0.0 size=N/A time=00:03:03.93 bitrate=N/A speed= 3.6x    frame= 4453 fps= 86 q=-0.0 size=N/A time=00:03:05.72 bitrate=N/A speed= 3.6x    frame= 4498 fps= 86 q=-0.0 size=N/A time=00:03:07.60 bitrate=N/A speed= 3.6x    frame= 4541 fps= 86 q=-0.0 size=N/A time=00:03:09.39 bitrate=N/A speed= 3.6x    frame= 4586 fps= 86 q=-0.0 size=N/A time=00:03:11.27 bitrate=N/A speed= 3.6x    frame= 4630 fps= 86 q=-0.0 size=N/A time=00:03:13.10 bitrate=N/A speed= 3.6x    frame= 4676 fps= 86 q=-0.0 size=N/A time=00:03:15.02 bitrate=N/A speed= 3.6x    frame= 4722 fps= 86 q=-0.0 size=N/A time=00:03:16.94 bitrate=N/A speed= 3.6x    frame= 4766 fps= 86 q=-0.0 size=N/A time=00:03:18.78 bitrate=N/A speed= 3.6x    frame= 4811 fps= 86 q=-0.0 size=N/A time=00:03:20.65 bitrate=N/A speed= 3.6x    frame= 4857 fps= 86 q=-0.0 size=N/A time=00:03:22.57 bitrate=N/A speed= 3.6x    frame= 4901 fps= 86 q=-0.0 size=N/A time=00:03:24.41 bitrate=N/A speed= 3.6x    frame= 4947 fps= 86 q=-0.0 size=N/A time=00:03:26.33 bitrate=N/A speed= 3.6x    frame= 4990 fps= 86 q=-0.0 size=N/A time=00:03:28.12 bitrate=N/A speed= 3.6x    frame= 5034 fps= 86 q=-0.0 size=N/A time=00:03:29.95 bitrate=N/A speed= 3.6x    frame= 5077 fps= 86 q=-0.0 size=N/A time=00:03:31.75 bitrate=N/A speed= 3.6x    frame= 5123 fps= 86 q=-0.0 size=N/A time=00:03:33.67 bitrate=N/A speed= 3.6x    frame= 5168 fps= 86 q=-0.0 size=N/A time=00:03:35.54 bitrate=N/A speed= 3.6x    frame= 5212 fps= 86 q=-0.0 size=N/A time=00:03:37.38 bitrate=N/A speed= 3.6x    frame= 5257 fps= 86 q=-0.0 size=N/A time=00:03:39.26 bitrate=N/A speed= 3.6x    frame= 5301 fps= 86 q=-0.0 size=N/A time=00:03:41.09 bitrate=N/A speed= 3.6x    frame= 5348 fps= 86 q=-0.0 size=N/A time=00:03:43.05 bitrate=N/A speed= 3.6x    frame= 5394 fps= 86 q=-0.0 size=N/A time=00:03:44.97 bitrate=N/A speed= 3.6x    frame= 5437 fps= 86 q=-0.0 size=N/A time=00:03:46.76 bitrate=N/A speed= 3.6x    frame= 5480 fps= 86 q=-0.0 size=N/A time=00:03:48.56 bitrate=N/A speed= 3.6x    frame= 5526 fps= 86 q=-0.0 size=N/A time=00:03:50.48 bitrate=N/A speed= 3.6x    frame= 5569 fps= 86 q=-0.0 size=N/A time=00:03:52.27 bitrate=N/A speed= 3.6x    frame= 5614 fps= 86 q=-0.0 size=N/A time=00:03:54.15 bitrate=N/A speed= 3.6x    frame= 5660 fps= 86 q=-0.0 size=N/A time=00:03:56.06 bitrate=N/A speed= 3.6x    frame= 5706 fps= 86 q=-0.0 size=N/A time=00:03:57.98 bitrate=N/A speed=3.61x    frame= 5752 fps= 86 q=-0.0 size=N/A time=00:03:59.90 bitrate=N/A speed=3.61x    frame= 5798 fps= 86 q=-0.0 size=N/A time=00:04:01.82 bitrate=N/A speed=3.61x    frame= 5841 fps= 86 q=-0.0 size=N/A time=00:04:03.61 bitrate=N/A speed=3.61x    frame= 5887 fps= 86 q=-0.0 size=N/A time=00:04:05.53 bitrate=N/A speed=3.61x    frame= 5933 fps= 86 q=-0.0 size=N/A time=00:04:07.45 bitrate=N/A speed=3.61x    frame= 5978 fps= 86 q=-0.0 size=N/A time=00:04:09.33 bitrate=N/A speed=3.61x    frame= 6022 fps= 86 q=-0.0 size=N/A time=00:04:11.16 bitrate=N/A speed=3.61x    frame= 6066 fps= 86 q=-0.0 size=N/A time=00:04:13.00 bitrate=N/A speed=3.61x    frame= 6112 fps= 86 q=-0.0 size=N/A time=00:04:14.92 bitrate=N/A speed=3.61x    frame= 6158 fps= 87 q=-0.0 size=N/A time=00:04:16.83 bitrate=N/A speed=3.61x    frame= 6202 fps= 87 q=-0.0 size=N/A time=00:04:18.67 bitrate=N/A speed=3.61x    frame= 6249 fps= 87 q=-0.0 size=N/A time=00:04:20.63 bitrate=N/A speed=3.61x    frame= 6294 fps= 87 q=-0.0 size=N/A time=00:04:22.51 bitrate=N/A speed=3.61x    frame= 6339 fps= 87 q=-0.0 size=N/A time=00:04:24.38 bitrate=N/A speed=3.61x    frame= 6384 fps= 87 q=-0.0 size=N/A time=00:04:26.26 bitrate=N/A speed=3.61x    frame= 6428 fps= 87 q=-0.0 size=N/A time=00:04:28.10 bitrate=N/A speed=3.61x    frame= 6472 fps= 87 q=-0.0 size=N/A time=00:04:29.93 bitrate=N/A speed=3.61x    frame= 6518 fps= 87 q=-0.0 size=N/A time=00:04:31.85 bitrate=N/A speed=3.61x    frame= 6563 fps= 87 q=-0.0 size=N/A time=00:04:33.73 bitrate=N/A speed=3.61x    frame= 6607 fps= 87 q=-0.0 size=N/A time=00:04:35.56 bitrate=N/A speed=3.61x    frame= 6655 fps= 87 q=-0.0 size=N/A time=00:04:37.56 bitrate=N/A speed=3.61x    frame= 6699 fps= 87 q=-0.0 size=N/A time=00:04:39.40 bitrate=N/A speed=3.61x    frame= 6748 fps= 87 q=-0.0 size=N/A time=00:04:41.44 bitrate=N/A speed=3.61x    frame= 6793 fps= 87 q=-0.0 size=N/A time=00:04:43.32 bitrate=N/A speed=3.61x    frame= 6838 fps= 87 q=-0.0 size=N/A time=00:04:45.20 bitrate=N/A speed=3.61x    frame= 6884 fps= 87 q=-0.0 size=N/A time=00:04:47.12 bitrate=N/A speed=3.61x    frame= 6927 fps= 87 q=-0.0 size=N/A time=00:04:48.91 bitrate=N/A speed=3.61x    frame= 6972 fps= 87 q=-0.0 size=N/A time=00:04:50.79 bitrate=N/A speed=3.61x    frame= 7015 fps= 87 q=-0.0 size=N/A time=00:04:52.58 bitrate=N/A speed=3.61x    frame= 7062 fps= 87 q=-0.0 size=N/A time=00:04:54.54 bitrate=N/A speed=3.61x    frame= 7107 fps= 87 q=-0.0 size=N/A time=00:04:56.42 bitrate=N/A speed=3.61x    frame= 7153 fps= 87 q=-0.0 size=N/A time=00:04:58.33 bitrate=N/A speed=3.61x    frame= 7199 fps= 87 q=-0.0 size=N/A time=00:05:00.25 bitrate=N/A speed=3.62x    frame= 7244 fps= 87 q=-0.0 size=N/A time=00:05:02.13 bitrate=N/A speed=3.62x    frame= 7291 fps= 87 q=-0.0 size=N/A time=00:05:04.09 bitrate=N/A speed=3.62x    frame= 7333 fps= 87 q=-0.0 size=N/A time=00:05:05.84 bitrate=N/A speed=3.62x    frame= 7376 fps= 87 q=-0.0 size=N/A time=00:05:07.64 bitrate=N/A speed=3.61x    frame= 7420 fps= 87 q=-0.0 size=N/A time=00:05:09.47 bitrate=N/A speed=3.61x    frame= 7468 fps= 87 q=-0.0 size=N/A time=00:05:11.47 bitrate=N/A speed=3.62x    frame= 7512 fps= 87 q=-0.0 size=N/A time=00:05:13.31 bitrate=N/A speed=3.62x    frame= 7559 fps= 87 q=-0.0 size=N/A time=00:05:15.27 bitrate=N/A speed=3.62x    frame= 7603 fps= 87 q=-0.0 size=N/A time=00:05:17.10 bitrate=N/A speed=3.62x    frame= 7647 fps= 87 q=-0.0 size=N/A time=00:05:18.94 bitrate=N/A speed=3.62x    frame= 7692 fps= 87 q=-0.0 size=N/A time=00:05:20.82 bitrate=N/A speed=3.62x    frame= 7736 fps= 87 q=-0.0 size=N/A time=00:05:22.65 bitrate=N/A speed=3.62x    frame= 7778 fps= 87 q=-0.0 size=N/A time=00:05:24.40 bitrate=N/A speed=3.61x    frame= 7821 fps= 87 q=-0.0 size=N/A time=00:05:26.20 bitrate=N/A speed=3.61x    frame= 7867 fps= 87 q=-0.0 size=N/A time=00:05:28.11 bitrate=N/A speed=3.61x    frame= 7911 fps= 87 q=-0.0 size=N/A time=00:05:29.95 bitrate=N/A speed=3.61x    frame= 7958 fps= 87 q=-0.0 size=N/A time=00:05:31.91 bitrate=N/A speed=3.62x    frame= 8002 fps= 87 q=-0.0 size=N/A time=00:05:33.75 bitrate=N/A speed=3.61x    frame= 8047 fps= 87 q=-0.0 size=N/A time=00:05:35.62 bitrate=N/A speed=3.62x    frame= 8093 fps= 87 q=-0.0 size=N/A time=00:05:37.54 bitrate=N/A speed=3.62x    frame= 8139 fps= 87 q=-0.0 size=N/A time=00:05:39.46 bitrate=N/A speed=3.62x    frame= 8184 fps= 87 q=-0.0 size=N/A time=00:05:41.34 bitrate=N/A speed=3.62x    frame= 8231 fps= 87 q=-0.0 size=N/A time=00:05:43.30 bitrate=N/A speed=3.62x    frame= 8275 fps= 87 q=-0.0 size=N/A time=00:05:45.13 bitrate=N/A speed=3.62x    frame= 8323 fps= 87 q=-0.0 size=N/A time=00:05:47.13 bitrate=N/A speed=3.62x    frame= 8367 fps= 87 q=-0.0 size=N/A time=00:05:48.97 bitrate=N/A speed=3.62x    frame= 8413 fps= 87 q=-0.0 size=N/A time=00:05:50.89 bitrate=N/A speed=3.62x    frame= 8458 fps= 87 q=-0.0 size=N/A time=00:05:52.76 bitrate=N/A speed=3.62x    frame= 8501 fps= 87 q=-0.0 size=N/A time=00:05:54.56 bitrate=N/A speed=3.62x    frame= 8548 fps= 87 q=-0.0 size=N/A time=00:05:56.52 bitrate=N/A speed=3.62x    frame= 8593 fps= 87 q=-0.0 size=N/A time=00:05:58.39 bitrate=N/A speed=3.62x    frame= 8637 fps= 87 q=-0.0 size=N/A time=00:06:00.23 bitrate=N/A speed=3.62x    frame= 8682 fps= 87 q=-0.0 size=N/A time=00:06:02.11 bitrate=N/A speed=3.62x    frame= 8726 fps= 87 q=-0.0 size=N/A time=00:06:03.94 bitrate=N/A speed=3.62x    frame= 8773 fps= 87 q=-0.0 size=N/A time=00:06:05.90 bitrate=N/A speed=3.62x    frame= 8816 fps= 87 q=-0.0 size=N/A time=00:06:07.70 bitrate=N/A speed=3.62x    frame= 8860 fps= 87 q=-0.0 size=N/A time=00:06:09.53 bitrate=N/A speed=3.62x    frame= 8904 fps= 87 q=-0.0 size=N/A time=00:06:11.37 bitrate=N/A speed=3.62x    frame= 8947 fps= 87 q=-0.0 size=N/A time=00:06:13.16 bitrate=N/A speed=3.62x    frame= 8993 fps= 87 q=-0.0 size=N/A time=00:06:15.08 bitrate=N/A speed=3.62x    frame= 9038 fps= 87 q=-0.0 size=N/A time=00:06:16.95 bitrate=N/A speed=3.62x    frame= 9082 fps= 87 q=-0.0 size=N/A time=00:06:18.79 bitrate=N/A speed=3.62x    frame= 9127 fps= 87 q=-0.0 size=N/A time=00:06:20.67 bitrate=N/A speed=3.62x    frame= 9171 fps= 87 q=-0.0 size=N/A time=00:06:22.50 bitrate=N/A speed=3.62x    frame= 9215 fps= 87 q=-0.0 size=N/A time=00:06:24.34 bitrate=N/A speed=3.62x    frame= 9262 fps= 87 q=-0.0 size=N/A time=00:06:26.30 bitrate=N/A speed=3.62x    frame= 9306 fps= 87 q=-0.0 size=N/A time=00:06:28.13 bitrate=N/A speed=3.62x    frame= 9352 fps= 87 q=-0.0 size=N/A time=00:06:30.05 bitrate=N/A speed=3.62x    frame= 9395 fps= 87 q=-0.0 size=N/A time=00:06:31.84 bitrate=N/A speed=3.62x    frame= 9439 fps= 87 q=-0.0 size=N/A time=00:06:33.68 bitrate=N/A speed=3.62x    frame= 9484 fps= 87 q=-0.0 size=N/A time=00:06:35.56 bitrate=N/A speed=3.62x    frame= 9527 fps= 87 q=-0.0 size=N/A time=00:06:37.35 bitrate=N/A speed=3.61x    frame= 9570 fps= 87 q=-0.0 size=N/A time=00:06:39.14 bitrate=N/A speed=3.61x    frame= 9615 fps= 87 q=-0.0 size=N/A time=00:06:41.02 bitrate=N/A speed=3.61x    frame= 9659 fps= 87 q=-0.0 size=N/A time=00:06:42.86 bitrate=N/A speed=3.61x    frame= 9704 fps= 87 q=-0.0 size=N/A time=00:06:44.73 bitrate=N/A speed=3.61x    frame= 9746 fps= 87 q=-0.0 size=N/A time=00:06:46.48 bitrate=N/A speed=3.61x    frame= 9787 fps= 87 q=-0.0 size=N/A time=00:06:48.19 bitrate=N/A speed=3.61x    frame= 9833 fps= 87 q=-0.0 size=N/A time=00:06:50.11 bitrate=N/A speed=3.61x    frame= 9879 fps= 87 q=-0.0 size=N/A time=00:06:52.03 bitrate=N/A speed=3.61x    frame= 9923 fps= 87 q=-0.0 size=N/A time=00:06:53.87 bitrate=N/A speed=3.61x    frame= 9968 fps= 87 q=-0.0 size=N/A time=00:06:55.74 bitrate=N/A speed=3.61x    frame=10014 fps= 87 q=-0.0 size=N/A time=00:06:57.66 bitrate=N/A speed=3.61x    frame=10057 fps= 87 q=-0.0 size=N/A time=00:06:59.46 bitrate=N/A speed=3.61x    frame=10102 fps= 87 q=-0.0 size=N/A time=00:07:01.33 bitrate=N/A speed=3.61x    frame=10148 fps= 87 q=-0.0 size=N/A time=00:07:03.25 bitrate=N/A speed=3.61x    frame=10193 fps= 87 q=-0.0 size=N/A time=00:07:05.13 bitrate=N/A speed=3.61x    frame=10238 fps= 87 q=-0.0 size=N/A time=00:07:07.00 bitrate=N/A speed=3.61x    frame=10283 fps= 87 q=-0.0 size=N/A time=00:07:08.88 bitrate=N/A speed=3.61x    frame=10328 fps= 87 q=-0.0 size=N/A time=00:07:10.76 bitrate=N/A speed=3.61x    frame=10374 fps= 87 q=-0.0 size=N/A time=00:07:12.68 bitrate=N/A speed=3.61x    frame=10419 fps= 87 q=-0.0 size=N/A time=00:07:14.55 bitrate=N/A speed=3.61x    frame=10463 fps= 87 q=-0.0 size=N/A time=00:07:16.39 bitrate=N/A speed=3.61x    frame=10507 fps= 87 q=-0.0 size=N/A time=00:07:18.22 bitrate=N/A speed=3.61x    frame=10551 fps= 87 q=-0.0 size=N/A time=00:07:20.06 bitrate=N/A speed=3.61x    frame=10596 fps= 87 q=-0.0 size=N/A time=00:07:21.94 bitrate=N/A speed=3.61x    frame=10642 fps= 87 q=-0.0 size=N/A time=00:07:23.86 bitrate=N/A speed=3.61x    frame=10685 fps= 87 q=-0.0 size=N/A time=00:07:25.65 bitrate=N/A speed=3.61x    frame=10731 fps= 87 q=-0.0 size=N/A time=00:07:27.57 bitrate=N/A speed=3.61x    frame=10779 fps= 87 q=-0.0 size=N/A time=00:07:29.57 bitrate=N/A speed=3.61x    frame=10822 fps= 87 q=-0.0 size=N/A time=00:07:31.36 bitrate=N/A speed=3.61x    frame=10866 fps= 87 q=-0.0 size=N/A time=00:07:33.20 bitrate=N/A speed=3.61x    frame=10912 fps= 87 q=-0.0 size=N/A time=00:07:35.12 bitrate=N/A speed=3.61x    frame=10956 fps= 87 q=-0.0 size=N/A time=00:07:36.95 bitrate=N/A speed=3.61x    frame=11001 fps= 87 q=-0.0 size=N/A time=00:07:38.83 bitrate=N/A speed=3.61x    frame=11047 fps= 87 q=-0.0 size=N/A time=00:07:40.75 bitrate=N/A speed=3.61x    frame=11092 fps= 87 q=-0.0 size=N/A time=00:07:42.62 bitrate=N/A speed=3.62x    frame=11137 fps= 87 q=-0.0 size=N/A time=00:07:44.50 bitrate=N/A speed=3.62x    frame=11182 fps= 87 q=-0.0 size=N/A time=00:07:46.38 bitrate=N/A speed=3.62x    frame=11228 fps= 87 q=-0.0 size=N/A time=00:07:48.30 bitrate=N/A speed=3.62x    frame=11271 fps= 87 q=-0.0 size=N/A time=00:07:50.09 bitrate=N/A speed=3.62x    frame=11315 fps= 87 q=-0.0 size=N/A time=00:07:51.92 bitrate=N/A speed=3.61x    frame=11359 fps= 87 q=-0.0 size=N/A time=00:07:53.76 bitrate=N/A speed=3.61x    frame=11405 fps= 87 q=-0.0 size=N/A time=00:07:55.68 bitrate=N/A speed=3.62x    frame=11451 fps= 87 q=-0.0 size=N/A time=00:07:57.60 bitrate=N/A speed=3.62x    frame=11496 fps= 87 q=-0.0 size=N/A time=00:07:59.47 bitrate=N/A speed=3.62x    frame=11542 fps= 87 q=-0.0 size=N/A time=00:08:01.39 bitrate=N/A speed=3.62x    frame=11587 fps= 87 q=-0.0 size=N/A time=00:08:03.27 bitrate=N/A speed=3.62x    frame=11631 fps= 87 q=-0.0 size=N/A time=00:08:05.10 bitrate=N/A speed=3.62x    frame=11677 fps= 87 q=-0.0 size=N/A time=00:08:07.02 bitrate=N/A speed=3.62x    frame=11721 fps= 87 q=-0.0 size=N/A time=00:08:08.86 bitrate=N/A speed=3.62x    frame=11764 fps= 87 q=-0.0 size=N/A time=00:08:10.65 bitrate=N/A speed=3.62x    frame=11810 fps= 87 q=-0.0 size=N/A time=00:08:12.57 bitrate=N/A speed=3.62x    frame=11855 fps= 87 q=-0.0 size=N/A time=00:08:14.45 bitrate=N/A speed=3.62x    frame=11899 fps= 87 q=-0.0 size=N/A time=00:08:16.28 bitrate=N/A speed=3.62x    frame=11942 fps= 87 q=-0.0 size=N/A time=00:08:18.08 bitrate=N/A speed=3.62x    frame=11988 fps= 87 q=-0.0 size=N/A time=00:08:19.99 bitrate=N/A speed=3.62x    frame=12033 fps= 87 q=-0.0 size=N/A time=00:08:21.87 bitrate=N/A speed=3.62x    frame=12077 fps= 87 q=-0.0 size=N/A time=00:08:23.71 bitrate=N/A speed=3.62x    frame=12121 fps= 87 q=-0.0 size=N/A time=00:08:25.54 bitrate=N/A speed=3.62x    frame=12167 fps= 87 q=-0.0 size=N/A time=00:08:27.46 bitrate=N/A speed=3.62x    frame=12212 fps= 87 q=-0.0 size=N/A time=00:08:29.34 bitrate=N/A speed=3.62x    frame=12258 fps= 87 q=-0.0 size=N/A time=00:08:31.26 bitrate=N/A speed=3.62x    frame=12302 fps= 87 q=-0.0 size=N/A time=00:08:33.09 bitrate=N/A speed=3.62x    frame=12345 fps= 87 q=-0.0 size=N/A time=00:08:34.88 bitrate=N/A speed=3.62x    frame=12389 fps= 87 q=-0.0 size=N/A time=00:08:36.72 bitrate=N/A speed=3.62x    frame=12435 fps= 87 q=-0.0 size=N/A time=00:08:38.64 bitrate=N/A speed=3.62x    frame=12479 fps= 87 q=-0.0 size=N/A time=00:08:40.47 bitrate=N/A speed=3.62x    frame=12523 fps= 87 q=-0.0 size=N/A time=00:08:42.31 bitrate=N/A speed=3.62x    frame=12569 fps= 87 q=-0.0 size=N/A time=00:08:44.23 bitrate=N/A speed=3.62x    frame=12613 fps= 87 q=-0.0 size=N/A time=00:08:46.06 bitrate=N/A speed=3.62x    frame=12657 fps= 87 q=-0.0 size=N/A time=00:08:47.90 bitrate=N/A speed=3.62x    frame=12704 fps= 87 q=-0.0 size=N/A time=00:08:49.86 bitrate=N/A speed=3.62x    frame=12749 fps= 87 q=-0.0 size=N/A time=00:08:51.73 bitrate=N/A speed=3.62x    frame=12795 fps= 87 q=-0.0 size=N/A time=00:08:53.65 bitrate=N/A speed=3.62x    frame=12837 fps= 87 q=-0.0 size=N/A time=00:08:55.40 bitrate=N/A speed=3.62x    frame=12880 fps= 87 q=-0.0 size=N/A time=00:08:57.20 bitrate=N/A speed=3.62x    frame=12925 fps= 87 q=-0.0 size=N/A time=00:08:59.08 bitrate=N/A speed=3.62x    frame=12969 fps= 87 q=-0.0 size=N/A time=00:09:00.91 bitrate=N/A speed=3.62x    frame=13014 fps= 87 q=-0.0 size=N/A time=00:09:02.79 bitrate=N/A speed=3.62x    frame=13063 fps= 87 q=-0.0 size=N/A time=00:09:04.83 bitrate=N/A speed=3.62x    frame=13108 fps= 87 q=-0.0 size=N/A time=00:09:06.71 bitrate=N/A speed=3.62x    frame=13152 fps= 87 q=-0.0 size=N/A time=00:09:08.54 bitrate=N/A speed=3.62x    frame=13196 fps= 87 q=-0.0 size=N/A time=00:09:10.38 bitrate=N/A speed=3.62x    frame=13241 fps= 87 q=-0.0 size=N/A time=00:09:12.26 bitrate=N/A speed=3.62x    frame=13287 fps= 87 q=-0.0 size=N/A time=00:09:14.17 bitrate=N/A speed=3.62x    frame=13330 fps= 87 q=-0.0 size=N/A time=00:09:15.97 bitrate=N/A speed=3.62x    frame=13375 fps= 87 q=-0.0 size=N/A time=00:09:17.84 bitrate=N/A speed=3.62x    frame=13418 fps= 87 q=-0.0 size=N/A time=00:09:19.64 bitrate=N/A speed=3.62x    frame=13463 fps= 87 q=-0.0 size=N/A time=00:09:21.51 bitrate=N/A speed=3.62x    frame=13508 fps= 87 q=-0.0 size=N/A time=00:09:23.39 bitrate=N/A speed=3.62x    frame=13550 fps= 87 q=-0.0 size=N/A time=00:09:25.14 bitrate=N/A speed=3.62x    frame=13593 fps= 87 q=-0.0 size=N/A time=00:09:26.94 bitrate=N/A speed=3.61x    frame=13639 fps= 87 q=-0.0 size=N/A time=00:09:28.85 bitrate=N/A speed=3.61x    frame=13681 fps= 87 q=-0.0 size=N/A time=00:09:30.61 bitrate=N/A speed=3.61x    frame=13726 fps= 87 q=-0.0 size=N/A time=00:09:32.48 bitrate=N/A speed=3.61x    frame=13770 fps= 87 q=-0.0 size=N/A time=00:09:34.32 bitrate=N/A speed=3.61x    frame=13813 fps= 87 q=-0.0 size=N/A time=00:09:36.11 bitrate=N/A speed=3.61x    frame=13854 fps= 87 q=-0.0 size=N/A time=00:09:37.82 bitrate=N/A speed=3.61x    frame=13899 fps= 87 q=-0.0 size=N/A time=00:09:39.70 bitrate=N/A speed=3.61x    frame=13945 fps= 87 q=-0.0 size=N/A time=00:09:41.62 bitrate=N/A speed=3.61x    frame=13989 fps= 87 q=-0.0 size=N/A time=00:09:43.45 bitrate=N/A speed=3.61x    frame=14033 fps= 87 q=-0.0 size=N/A time=00:09:45.29 bitrate=N/A speed=3.61x    frame=14079 fps= 87 q=-0.0 size=N/A time=00:09:47.21 bitrate=N/A speed=3.61x    frame=14124 fps= 87 q=-0.0 size=N/A time=00:09:49.08 bitrate=N/A speed=3.61x    frame=14169 fps= 87 q=-0.0 size=N/A time=00:09:50.96 bitrate=N/A speed=3.61x    frame=14214 fps= 87 q=-0.0 size=N/A time=00:09:52.84 bitrate=N/A speed=3.61x    frame=14259 fps= 87 q=-0.0 size=N/A time=00:09:54.71 bitrate=N/A speed=3.61x    frame=14302 fps= 87 q=-0.0 size=N/A time=00:09:56.51 bitrate=N/A speed=3.61x    frame=14346 fps= 87 q=-0.0 size=N/A time=00:09:58.34 bitrate=N/A speed=3.61x    frame=14390 fps= 87 q=-0.0 size=N/A time=00:10:00.18 bitrate=N/A speed=3.61x    frame=14436 fps= 87 q=-0.0 size=N/A time=00:10:02.10 bitrate=N/A speed=3.61x    frame=14479 fps= 87 q=-0.0 size=N/A time=00:10:03.89 bitrate=N/A speed=3.61x    frame=14526 fps= 87 q=-0.0 size=N/A time=00:10:05.85 bitrate=N/A speed=3.61x    frame=14571 fps= 87 q=-0.0 size=N/A time=00:10:07.73 bitrate=N/A speed=3.61x    frame=14614 fps= 87 q=-0.0 size=N/A time=00:10:09.52 bitrate=N/A speed=3.61x    frame=14658 fps= 87 q=-0.0 size=N/A time=00:10:11.36 bitrate=N/A speed=3.61x    frame=14702 fps= 87 q=-0.0 size=N/A time=00:10:13.19 bitrate=N/A speed=3.61x    frame=14748 fps= 87 q=-0.0 size=N/A time=00:10:15.11 bitrate=N/A speed=3.61x    frame=14793 fps= 87 q=-0.0 size=N/A time=00:10:16.99 bitrate=N/A speed=3.61x    frame=14837 fps= 87 q=-0.0 size=N/A time=00:10:18.82 bitrate=N/A speed=3.61x    frame=14882 fps= 87 q=-0.0 size=N/A time=00:10:20.70 bitrate=N/A speed=3.61x    frame=14924 fps= 87 q=-0.0 size=N/A time=00:10:22.45 bitrate=N/A speed=3.61x    frame=14971 fps= 87 q=-0.0 size=N/A time=00:10:24.41 bitrate=N/A speed=3.61x    frame=15015 fps= 87 q=-0.0 size=N/A time=00:10:26.25 bitrate=N/A speed=3.61x    frame=15059 fps= 87 q=-0.0 size=N/A time=00:10:28.08 bitrate=N/A speed=3.61x    frame=15103 fps= 87 q=-0.0 size=N/A time=00:10:29.92 bitrate=N/A speed=3.61x    frame=15147 fps= 87 q=-0.0 size=N/A time=00:10:31.75 bitrate=N/A speed=3.61x    frame=15194 fps= 87 q=-0.0 size=N/A time=00:10:33.71 bitrate=N/A speed=3.61x    frame=15237 fps= 87 q=-0.0 size=N/A time=00:10:35.50 bitrate=N/A speed=3.61x    frame=15282 fps= 87 q=-0.0 size=N/A time=00:10:37.38 bitrate=N/A speed=3.61x    frame=15325 fps= 87 q=-0.0 size=N/A time=00:10:39.18 bitrate=N/A speed=3.61x    frame=15369 fps= 87 q=-0.0 size=N/A time=00:10:41.01 bitrate=N/A speed=3.61x    frame=15414 fps= 87 q=-0.0 size=N/A time=00:10:42.89 bitrate=N/A speed=3.61x    frame=15458 fps= 87 q=-0.0 size=N/A time=00:10:44.72 bitrate=N/A speed=3.61x    frame=15503 fps= 87 q=-0.0 size=N/A time=00:10:46.60 bitrate=N/A speed=3.61x    frame=15548 fps= 87 q=-0.0 size=N/A time=00:10:48.48 bitrate=N/A speed=3.61x    frame=15593 fps= 87 q=-0.0 size=N/A time=00:10:50.35 bitrate=N/A speed=3.61x    frame=15638 fps= 87 q=-0.0 size=N/A time=00:10:52.23 bitrate=N/A speed=3.61x    frame=15681 fps= 87 q=-0.0 size=N/A time=00:10:54.02 bitrate=N/A speed=3.61x    frame=15724 fps= 87 q=-0.0 size=N/A time=00:10:55.82 bitrate=N/A speed=3.61x    frame=15768 fps= 87 q=-0.0 size=N/A time=00:10:57.65 bitrate=N/A speed=3.61x    frame=15812 fps= 87 q=-0.0 size=N/A time=00:10:59.49 bitrate=N/A speed=3.61x    frame=15857 fps= 87 q=-0.0 size=N/A time=00:11:01.36 bitrate=N/A speed=3.61x    frame=15902 fps= 87 q=-0.0 size=N/A time=00:11:03.24 bitrate=N/A speed=3.61x    frame=15946 fps= 87 q=-0.0 size=N/A time=00:11:05.08 bitrate=N/A speed=3.61x    frame=15993 fps= 87 q=-0.0 size=N/A time=00:11:07.04 bitrate=N/A speed=3.61x    frame=16039 fps= 87 q=-0.0 size=N/A time=00:11:08.95 bitrate=N/A speed=3.61x    frame=16084 fps= 87 q=-0.0 size=N/A time=00:11:10.83 bitrate=N/A speed=3.61x    frame=16130 fps= 87 q=-0.0 size=N/A time=00:11:12.75 bitrate=N/A speed=3.61x    frame=16172 fps= 87 q=-0.0 size=N/A time=00:11:14.50 bitrate=N/A speed=3.61x    frame=16216 fps= 87 q=-0.0 size=N/A time=00:11:16.34 bitrate=N/A speed=3.61x    frame=16259 fps= 87 q=-0.0 size=N/A time=00:11:18.13 bitrate=N/A speed=3.61x    frame=16304 fps= 87 q=-0.0 size=N/A time=00:11:20.01 bitrate=N/A speed=3.61x    frame=16348 fps= 87 q=-0.0 size=N/A time=00:11:21.84 bitrate=N/A speed=3.61x    frame=16392 fps= 87 q=-0.0 size=N/A time=00:11:23.68 bitrate=N/A speed=3.61x    frame=16436 fps= 87 q=-0.0 size=N/A time=00:11:25.51 bitrate=N/A speed=3.61x    frame=16481 fps= 87 q=-0.0 size=N/A time=00:11:27.39 bitrate=N/A speed=3.61x    frame=16522 fps= 87 q=-0.0 size=N/A time=00:11:29.10 bitrate=N/A speed=3.61x    frame=16569 fps= 87 q=-0.0 size=N/A time=00:11:31.06 bitrate=N/A speed=3.61x    frame=16613 fps= 87 q=-0.0 size=N/A time=00:11:32.90 bitrate=N/A speed=3.61x    frame=16656 fps= 87 q=-0.0 size=N/A time=00:11:34.69 bitrate=N/A speed=3.61x    frame=16701 fps= 87 q=-0.0 size=N/A time=00:11:36.57 bitrate=N/A speed=3.61x    frame=16746 fps= 87 q=-0.0 size=N/A time=00:11:38.44 bitrate=N/A speed=3.61x    frame=16789 fps= 87 q=-0.0 size=N/A time=00:11:40.24 bitrate=N/A speed=3.61x    frame=16834 fps= 87 q=-0.0 size=N/A time=00:11:42.11 bitrate=N/A speed=3.61x    frame=16879 fps= 87 q=-0.0 size=N/A time=00:11:43.99 bitrate=N/A speed=3.61x    frame=16925 fps= 87 q=-0.0 size=N/A time=00:11:45.91 bitrate=N/A speed=3.61x    frame=16972 fps= 87 q=-0.0 size=N/A time=00:11:47.87 bitrate=N/A speed=3.61x    frame=17014 fps= 87 q=-0.0 size=N/A time=00:11:49.62 bitrate=N/A speed=3.61x    frame=17057 fps= 87 q=-0.0 size=N/A time=00:11:51.41 bitrate=N/A speed=3.61x    frame=17102 fps= 87 q=-0.0 size=N/A time=00:11:53.29 bitrate=N/A speed=3.61x    frame=17147 fps= 87 q=-0.0 size=N/A time=00:11:55.17 bitrate=N/A speed=3.61x    frame=17192 fps= 87 q=-0.0 size=N/A time=00:11:57.04 bitrate=N/A speed=3.61x    frame=17235 fps= 87 q=-0.0 size=N/A time=00:11:58.84 bitrate=N/A speed=3.61x    frame=17279 fps= 87 q=-0.0 size=N/A time=00:12:00.67 bitrate=N/A speed=3.61x    frame=17325 fps= 87 q=-0.0 size=N/A time=00:12:02.59 bitrate=N/A speed=3.61x    frame=17370 fps= 87 q=-0.0 size=N/A time=00:12:04.47 bitrate=N/A speed=3.61x    frame=17414 fps= 87 q=-0.0 size=N/A time=00:12:06.30 bitrate=N/A speed=3.61x    frame=17458 fps= 87 q=-0.0 size=N/A time=00:12:08.14 bitrate=N/A speed=3.61x    frame=17499 fps= 87 q=-0.0 size=N/A time=00:12:09.85 bitrate=N/A speed=3.61x    frame=17543 fps= 87 q=-0.0 size=N/A time=00:12:11.68 bitrate=N/A speed=3.61x    frame=17586 fps= 87 q=-0.0 size=N/A time=00:12:13.48 bitrate=N/A speed=3.61x    frame=17629 fps= 87 q=-0.0 size=N/A time=00:12:15.27 bitrate=N/A speed=3.61x    frame=17673 fps= 87 q=-0.0 size=N/A time=00:12:17.11 bitrate=N/A speed=3.61x    frame=17719 fps= 87 q=-0.0 size=N/A time=00:12:19.02 bitrate=N/A speed=3.61x    frame=17761 fps= 86 q=-0.0 size=N/A time=00:12:20.78 bitrate=N/A speed=3.61x    frame=17804 fps= 86 q=-0.0 size=N/A time=00:12:22.57 bitrate=N/A speed=3.61x    frame=17847 fps= 86 q=-0.0 size=N/A time=00:12:24.36 bitrate=N/A speed=3.61x    frame=17893 fps= 86 q=-0.0 size=N/A time=00:12:26.28 bitrate=N/A speed=3.61x    frame=17935 fps= 86 q=-0.0 size=N/A time=00:12:28.03 bitrate=N/A speed=3.61x    frame=17978 fps= 86 q=-0.0 size=N/A time=00:12:29.83 bitrate=N/A speed=3.61x    frame=18023 fps= 86 q=-0.0 size=N/A time=00:12:31.70 bitrate=N/A speed=3.61x    frame=18068 fps= 86 q=-0.0 size=N/A time=00:12:33.58 bitrate=N/A speed=3.61x    frame=18113 fps= 86 q=-0.0 size=N/A time=00:12:35.46 bitrate=N/A speed=3.61x    frame=18158 fps= 86 q=-0.0 size=N/A time=00:12:37.33 bitrate=N/A speed=3.61x    frame=18200 fps= 86 q=-0.0 size=N/A time=00:12:39.09 bitrate=N/A speed=3.61x    frame=18246 fps= 86 q=-0.0 size=N/A time=00:12:41.01 bitrate=N/A speed=3.61x    frame=18288 fps= 86 q=-0.0 size=N/A time=00:12:42.76 bitrate=N/A speed=3.61x    frame=18332 fps= 86 q=-0.0 size=N/A time=00:12:44.59 bitrate=N/A speed=3.61x    frame=18377 fps= 86 q=-0.0 size=N/A time=00:12:46.47 bitrate=N/A speed=3.61x    frame=18421 fps= 86 q=-0.0 size=N/A time=00:12:48.30 bitrate=N/A speed=3.61x    frame=18465 fps= 86 q=-0.0 size=N/A time=00:12:50.14 bitrate=N/A speed=3.61x    frame=18510 fps= 86 q=-0.0 size=N/A time=00:12:52.02 bitrate=N/A speed=3.61x    frame=18553 fps= 86 q=-0.0 size=N/A time=00:12:53.81 bitrate=N/A speed=3.61x    frame=18599 fps= 86 q=-0.0 size=N/A time=00:12:55.73 bitrate=N/A speed=3.61x    frame=18644 fps= 86 q=-0.0 size=N/A time=00:12:57.61 bitrate=N/A speed=3.61x    frame=18687 fps= 86 q=-0.0 size=N/A time=00:12:59.40 bitrate=N/A speed=3.61x    frame=18732 fps= 86 q=-0.0 size=N/A time=00:13:01.28 bitrate=N/A speed=3.61x    frame=18775 fps= 86 q=-0.0 size=N/A time=00:13:03.07 bitrate=N/A speed=3.61x    frame=18818 fps= 86 q=-0.0 size=N/A time=00:13:04.86 bitrate=N/A speed= 3.6x    frame=18863 fps= 86 q=-0.0 size=N/A time=00:13:06.74 bitrate=N/A speed= 3.6x    frame=18905 fps= 86 q=-0.0 size=N/A time=00:13:08.49 bitrate=N/A speed= 3.6x    frame=18950 fps= 86 q=-0.0 size=N/A time=00:13:10.37 bitrate=N/A speed= 3.6x    frame=18994 fps= 86 q=-0.0 size=N/A time=00:13:12.20 bitrate=N/A speed= 3.6x    frame=19036 fps= 86 q=-0.0 size=N/A time=00:13:13.95 bitrate=N/A speed= 3.6x    frame=19081 fps= 86 q=-0.0 size=N/A time=00:13:15.83 bitrate=N/A speed= 3.6x    frame=19125 fps= 86 q=-0.0 size=N/A time=00:13:17.67 bitrate=N/A speed= 3.6x    frame=19171 fps= 86 q=-0.0 size=N/A time=00:13:19.59 bitrate=N/A speed= 3.6x    frame=19217 fps= 86 q=-0.0 size=N/A time=00:13:21.50 bitrate=N/A speed= 3.6x    frame=19264 fps= 86 q=-0.0 size=N/A time=00:13:23.46 bitrate=N/A speed= 3.6x    frame=19308 fps= 86 q=-0.0 size=N/A time=00:13:25.30 bitrate=N/A speed= 3.6x    frame=19353 fps= 86 q=-0.0 size=N/A time=00:13:27.18 bitrate=N/A speed= 3.6x    frame=19395 fps= 86 q=-0.0 size=N/A time=00:13:28.93 bitrate=N/A speed= 3.6x    frame=19441 fps= 86 q=-0.0 size=N/A time=00:13:30.85 bitrate=N/A speed= 3.6x    frame=19490 fps= 86 q=-0.0 size=N/A time=00:13:32.89 bitrate=N/A speed=3.61x    frame=19533 fps= 86 q=-0.0 size=N/A time=00:13:34.68 bitrate=N/A speed= 3.6x    frame=19577 fps= 86 q=-0.0 size=N/A time=00:13:36.52 bitrate=N/A speed= 3.6x    frame=19624 fps= 86 q=-0.0 size=N/A time=00:13:38.48 bitrate=N/A speed=3.61x    frame=19669 fps= 86 q=-0.0 size=N/A time=00:13:40.36 bitrate=N/A speed=3.61x    frame=19716 fps= 86 q=-0.0 size=N/A time=00:13:42.32 bitrate=N/A speed=3.61x    frame=19760 fps= 86 q=-0.0 size=N/A time=00:13:44.15 bitrate=N/A speed=3.61x    frame=19803 fps= 86 q=-0.0 size=N/A time=00:13:45.95 bitrate=N/A speed=3.61x    frame=19847 fps= 86 q=-0.0 size=N/A time=00:13:47.78 bitrate=N/A speed=3.61x    frame=19894 fps= 86 q=-0.0 size=N/A time=00:13:49.74 bitrate=N/A speed=3.61x    frame=19936 fps= 86 q=-0.0 size=N/A time=00:13:51.49 bitrate=N/A speed= 3.6x    frame=19978 fps= 86 q=-0.0 size=N/A time=00:13:53.24 bitrate=N/A speed= 3.6x    frame=20017 fps= 86 q=-0.0 size=N/A time=00:13:54.87 bitrate=N/A speed= 3.6x    frame=20057 fps= 86 q=-0.0 size=N/A time=00:13:56.54 bitrate=N/A speed= 3.6x    frame=20092 fps= 86 q=-0.0 size=N/A time=00:13:58.00 bitrate=N/A speed= 3.6x    frame=20133 fps= 86 q=-0.0 size=N/A time=00:13:59.71 bitrate=N/A speed= 3.6x    frame=20175 fps= 86 q=-0.0 size=N/A time=00:14:01.46 bitrate=N/A speed= 3.6x    frame=20216 fps= 86 q=-0.0 size=N/A time=00:14:03.17 bitrate=N/A speed= 3.6x    frame=20251 fps= 86 q=-0.0 size=N/A time=00:14:04.63 bitrate=N/A speed= 3.6x    frame=20291 fps= 86 q=-0.0 size=N/A time=00:14:06.30 bitrate=N/A speed= 3.6x    frame=20329 fps= 86 q=-0.0 size=N/A time=00:14:07.88 bitrate=N/A speed= 3.6x    frame=20369 fps= 86 q=-0.0 size=N/A time=00:14:09.55 bitrate=N/A speed=3.59x    frame=20412 fps= 86 q=-0.0 size=N/A time=00:14:11.35 bitrate=N/A speed=3.59x    frame=20450 fps= 86 q=-0.0 size=N/A time=00:14:12.93 bitrate=N/A speed=3.59x    frame=20492 fps= 86 q=-0.0 size=N/A time=00:14:14.68 bitrate=N/A speed=3.59x    frame=20534 fps= 86 q=-0.0 size=N/A time=00:14:16.43 bitrate=N/A speed=3.59x    frame=20576 fps= 86 q=-0.0 size=N/A time=00:14:18.19 bitrate=N/A speed=3.59x    frame=20619 fps= 86 q=-0.0 size=N/A time=00:14:19.98 bitrate=N/A speed=3.59x    frame=20660 fps= 86 q=-0.0 size=N/A time=00:14:21.69 bitrate=N/A speed=3.59x    frame=20702 fps= 86 q=-0.0 size=N/A time=00:14:23.44 bitrate=N/A speed=3.59x    frame=20740 fps= 86 q=-0.0 size=N/A time=00:14:25.03 bitrate=N/A speed=3.59x    frame=20782 fps= 86 q=-0.0 size=N/A time=00:14:26.78 bitrate=N/A speed=3.59x    frame=20825 fps= 86 q=-0.0 size=N/A time=00:14:28.57 bitrate=N/A speed=3.59x    frame=20867 fps= 86 q=-0.0 size=N/A time=00:14:30.32 bitrate=N/A speed=3.59x    frame=20910 fps= 86 q=-0.0 size=N/A time=00:14:32.12 bitrate=N/A speed=3.59x    frame=20954 fps= 86 q=-0.0 size=N/A time=00:14:33.95 bitrate=N/A speed=3.59x    frame=20996 fps= 86 q=-0.0 size=N/A time=00:14:35.70 bitrate=N/A speed=3.59x    frame=21042 fps= 86 q=-0.0 size=N/A time=00:14:37.62 bitrate=N/A speed=3.59x    frame=21084 fps= 86 q=-0.0 size=N/A time=00:14:39.37 bitrate=N/A speed=3.59x    frame=21126 fps= 86 q=-0.0 size=N/A time=00:14:41.13 bitrate=N/A speed=3.59x    frame=21172 fps= 86 q=-0.0 size=N/A time=00:14:43.04 bitrate=N/A speed=3.59x    frame=21215 fps= 86 q=-0.0 size=N/A time=00:14:44.84 bitrate=N/A speed=3.59x    frame=21259 fps= 86 q=-0.0 size=N/A time=00:14:46.67 bitrate=N/A speed=3.59x    frame=21303 fps= 86 q=-0.0 size=N/A time=00:14:48.51 bitrate=N/A speed=3.59x    frame=21347 fps= 86 q=-0.0 size=N/A time=00:14:50.34 bitrate=N/A speed=3.59x    frame=21386 fps= 86 q=-0.0 size=N/A time=00:14:51.97 bitrate=N/A speed=3.59x    frame=21423 fps= 86 q=-0.0 size=N/A time=00:14:53.51 bitrate=N/A speed=3.59x    frame=21462 fps= 86 q=-0.0 size=N/A time=00:14:55.14 bitrate=N/A speed=3.58x    frame=21508 fps= 86 q=-0.0 size=N/A time=00:14:57.06 bitrate=N/A speed=3.58x    frame=21551 fps= 86 q=-0.0 size=N/A time=00:14:58.85 bitrate=N/A speed=3.58x    frame=21594 fps= 86 q=-0.0 size=N/A time=00:15:00.64 bitrate=N/A speed=3.58x    frame=21638 fps= 86 q=-0.0 size=N/A time=00:15:02.48 bitrate=N/A speed=3.58x    frame=21683 fps= 86 q=-0.0 size=N/A time=00:15:04.36 bitrate=N/A speed=3.58x    frame=21727 fps= 86 q=-0.0 size=N/A time=00:15:06.19 bitrate=N/A speed=3.58x    frame=21770 fps= 86 q=-0.0 size=N/A time=00:15:07.99 bitrate=N/A speed=3.58x    frame=21813 fps= 86 q=-0.0 size=N/A time=00:15:09.78 bitrate=N/A speed=3.58x    frame=21859 fps= 86 q=-0.0 size=N/A time=00:15:11.70 bitrate=N/A speed=3.58x    frame=21902 fps= 86 q=-0.0 size=N/A time=00:15:13.49 bitrate=N/A speed=3.58x    frame=21947 fps= 86 q=-0.0 size=N/A time=00:15:15.37 bitrate=N/A speed=3.58x    frame=21990 fps= 86 q=-0.0 size=N/A time=00:15:17.16 bitrate=N/A speed=3.58x    frame=22033 fps= 86 q=-0.0 size=N/A time=00:15:18.95 bitrate=N/A speed=3.58x    frame=22076 fps= 86 q=-0.0 size=N/A time=00:15:20.75 bitrate=N/A speed=3.58x    frame=22121 fps= 86 q=-0.0 size=N/A time=00:15:22.63 bitrate=N/A speed=3.58x    frame=22158 fps= 86 q=-0.0 size=N/A time=00:15:24.17 bitrate=N/A speed=3.58x    frame=22202 fps= 86 q=-0.0 size=N/A time=00:15:26.00 bitrate=N/A speed=3.58x    frame=22241 fps= 86 q=-0.0 size=N/A time=00:15:27.63 bitrate=N/A speed=3.58x    frame=22284 fps= 86 q=-0.0 size=N/A time=00:15:29.42 bitrate=N/A speed=3.58x    frame=22327 fps= 86 q=-0.0 size=N/A time=00:15:31.22 bitrate=N/A speed=3.58x    frame=22371 fps= 86 q=-0.0 size=N/A time=00:15:33.05 bitrate=N/A speed=3.58x    frame=22414 fps= 86 q=-0.0 size=N/A time=00:15:34.85 bitrate=N/A speed=3.58x    frame=22457 fps= 86 q=-0.0 size=N/A time=00:15:36.64 bitrate=N/A speed=3.58x    frame=22500 fps= 86 q=-0.0 size=N/A time=00:15:38.43 bitrate=N/A speed=3.58x    frame=22546 fps= 86 q=-0.0 size=N/A time=00:15:40.35 bitrate=N/A speed=3.58x    frame=22589 fps= 86 q=-0.0 size=N/A time=00:15:42.14 bitrate=N/A speed=3.58x    frame=22634 fps= 86 q=-0.0 size=N/A time=00:15:44.02 bitrate=N/A speed=3.58x    frame=22676 fps= 86 q=-0.0 size=N/A time=00:15:45.77 bitrate=N/A speed=3.58x    frame=22722 fps= 86 q=-0.0 size=N/A time=00:15:47.69 bitrate=N/A speed=3.58x    frame=22765 fps= 86 q=-0.0 size=N/A time=00:15:49.49 bitrate=N/A speed=3.58x    frame=22809 fps= 86 q=-0.0 size=N/A time=00:15:51.32 bitrate=N/A speed=3.58x    frame=22853 fps= 86 q=-0.0 size=N/A time=00:15:53.16 bitrate=N/A speed=3.58x    frame=22898 fps= 86 q=-0.0 size=N/A time=00:15:55.03 bitrate=N/A speed=3.58x    frame=22942 fps= 86 q=-0.0 size=N/A time=00:15:56.87 bitrate=N/A speed=3.58x    frame=22986 fps= 86 q=-0.0 size=N/A time=00:15:58.70 bitrate=N/A speed=3.58x    frame=23032 fps= 86 q=-0.0 size=N/A time=00:16:00.62 bitrate=N/A speed=3.58x    frame=23076 fps= 86 q=-0.0 size=N/A time=00:16:02.46 bitrate=N/A speed=3.58x    frame=23120 fps= 86 q=-0.0 size=N/A time=00:16:04.29 bitrate=N/A speed=3.58x    frame=23164 fps= 86 q=-0.0 size=N/A time=00:16:06.13 bitrate=N/A speed=3.58x    frame=23208 fps= 86 q=-0.0 size=N/A time=00:16:07.96 bitrate=N/A speed=3.58x    frame=23251 fps= 86 q=-0.0 size=N/A time=00:16:09.76 bitrate=N/A speed=3.58x    frame=23296 fps= 86 q=-0.0 size=N/A time=00:16:11.63 bitrate=N/A speed=3.58x    frame=23338 fps= 86 q=-0.0 size=N/A time=00:16:13.38 bitrate=N/A speed=3.58x    frame=23383 fps= 86 q=-0.0 size=N/A time=00:16:15.26 bitrate=N/A speed=3.58x    frame=23429 fps= 86 q=-0.0 size=N/A time=00:16:17.18 bitrate=N/A speed=3.58x    frame=23471 fps= 86 q=-0.0 size=N/A time=00:16:18.93 bitrate=N/A speed=3.58x    frame=23514 fps= 86 q=-0.0 size=N/A time=00:16:20.72 bitrate=N/A speed=3.58x    frame=23558 fps= 86 q=-0.0 size=N/A time=00:16:22.56 bitrate=N/A speed=3.58x    frame=23602 fps= 86 q=-0.0 size=N/A time=00:16:24.40 bitrate=N/A speed=3.58x    frame=23647 fps= 86 q=-0.0 size=N/A time=00:16:26.27 bitrate=N/A speed=3.58x    frame=23688 fps= 86 q=-0.0 size=N/A time=00:16:27.98 bitrate=N/A speed=3.58x    frame=23735 fps= 86 q=-0.0 size=N/A time=00:16:29.94 bitrate=N/A speed=3.58x    frame=23777 fps= 86 q=-0.0 size=N/A time=00:16:31.69 bitrate=N/A speed=3.58x    frame=23822 fps= 86 q=-0.0 size=N/A time=00:16:33.57 bitrate=N/A speed=3.58x    frame=23868 fps= 86 q=-0.0 size=N/A time=00:16:35.49 bitrate=N/A speed=3.58x    frame=23914 fps= 86 q=-0.0 size=N/A time=00:16:37.41 bitrate=N/A speed=3.58x    frame=23956 fps= 86 q=-0.0 size=N/A time=00:16:39.16 bitrate=N/A speed=3.58x    frame=24001 fps= 86 q=-0.0 size=N/A time=00:16:41.04 bitrate=N/A speed=3.58x    frame=24045 fps= 86 q=-0.0 size=N/A time=00:16:42.87 bitrate=N/A speed=3.58x    frame=24089 fps= 86 q=-0.0 size=N/A time=00:16:44.71 bitrate=N/A speed=3.58x    frame=24133 fps= 86 q=-0.0 size=N/A time=00:16:46.54 bitrate=N/A speed=3.58x    frame=24175 fps= 86 q=-0.0 size=N/A time=00:16:48.29 bitrate=N/A speed=3.58x    frame=24221 fps= 86 q=-0.0 size=N/A time=00:16:50.21 bitrate=N/A speed=3.58x    frame=24265 fps= 86 q=-0.0 size=N/A time=00:16:52.05 bitrate=N/A speed=3.58x    frame=24309 fps= 86 q=-0.0 size=N/A time=00:16:53.88 bitrate=N/A speed=3.58x    frame=24353 fps= 86 q=-0.0 size=N/A time=00:16:55.72 bitrate=N/A speed=3.58x    frame=24398 fps= 86 q=-0.0 size=N/A time=00:16:57.59 bitrate=N/A speed=3.58x    frame=24442 fps= 86 q=-0.0 size=N/A time=00:16:59.43 bitrate=N/A speed=3.58x    frame=24486 fps= 86 q=-0.0 size=N/A time=00:17:01.27 bitrate=N/A speed=3.58x    frame=24531 fps= 86 q=-0.0 size=N/A time=00:17:03.14 bitrate=N/A speed=3.58x    frame=24575 fps= 86 q=-0.0 size=N/A time=00:17:04.98 bitrate=N/A speed=3.58x    frame=24618 fps= 86 q=-0.0 size=N/A time=00:17:06.77 bitrate=N/A speed=3.58x    frame=24665 fps= 86 q=-0.0 size=N/A time=00:17:08.73 bitrate=N/A speed=3.58x    frame=24707 fps= 86 q=-0.0 size=N/A time=00:17:10.48 bitrate=N/A speed=3.58x    frame=24752 fps= 86 q=-0.0 size=N/A time=00:17:12.36 bitrate=N/A speed=3.58x    frame=24796 fps= 86 q=-0.0 size=N/A time=00:17:14.19 bitrate=N/A speed=3.58x    frame=24840 fps= 86 q=-0.0 size=N/A time=00:17:16.03 bitrate=N/A speed=3.58x    frame=24885 fps= 86 q=-0.0 size=N/A time=00:17:17.91 bitrate=N/A speed=3.58x    frame=24927 fps= 86 q=-0.0 size=N/A time=00:17:19.66 bitrate=N/A speed=3.58x    frame=24971 fps= 86 q=-0.0 size=N/A time=00:17:21.49 bitrate=N/A speed=3.58x    frame=25017 fps= 86 q=-0.0 size=N/A time=00:17:23.41 bitrate=N/A speed=3.58x    frame=25060 fps= 86 q=-0.0 size=N/A time=00:17:25.21 bitrate=N/A speed=3.58x    frame=25102 fps= 86 q=-0.0 size=N/A time=00:17:26.96 bitrate=N/A speed=3.58x    frame=25150 fps= 86 q=-0.0 size=N/A time=00:17:28.96 bitrate=N/A speed=3.58x    frame=25192 fps= 86 q=-0.0 size=N/A time=00:17:30.71 bitrate=N/A speed=3.58x    frame=25231 fps= 86 q=-0.0 size=N/A time=00:17:32.34 bitrate=N/A speed=3.58x    frame=25279 fps= 86 q=-0.0 size=N/A time=00:17:34.34 bitrate=N/A speed=3.58x    frame=25323 fps= 86 q=-0.0 size=N/A time=00:17:36.18 bitrate=N/A speed=3.58x    frame=25369 fps= 86 q=-0.0 size=N/A time=00:17:38.09 bitrate=N/A speed=3.58x    frame=25411 fps= 86 q=-0.0 size=N/A time=00:17:39.85 bitrate=N/A speed=3.58x    frame=25457 fps= 86 q=-0.0 size=N/A time=00:17:41.76 bitrate=N/A speed=3.58x    frame=25498 fps= 86 q=-0.0 size=N/A time=00:17:43.47 bitrate=N/A speed=3.58x    frame=25540 fps= 86 q=-0.0 size=N/A time=00:17:45.23 bitrate=N/A speed=3.58x    frame=25582 fps= 86 q=-0.0 size=N/A time=00:17:46.98 bitrate=N/A speed=3.58x    frame=25626 fps= 86 q=-0.0 size=N/A time=00:17:48.81 bitrate=N/A speed=3.58x    frame=25669 fps= 86 q=-0.0 size=N/A time=00:17:50.61 bitrate=N/A speed=3.58x    frame=25715 fps= 86 q=-0.0 size=N/A time=00:17:52.52 bitrate=N/A speed=3.58x    frame=25760 fps= 86 q=-0.0 size=N/A time=00:17:54.40 bitrate=N/A speed=3.58x    frame=25805 fps= 86 q=-0.0 size=N/A time=00:17:56.28 bitrate=N/A speed=3.58x    frame=25848 fps= 86 q=-0.0 size=N/A time=00:17:58.07 bitrate=N/A speed=3.58x    frame=25891 fps= 86 q=-0.0 size=N/A time=00:17:59.87 bitrate=N/A speed=3.58x    frame=25934 fps= 86 q=-0.0 size=N/A time=00:18:01.66 bitrate=N/A speed=3.58x    frame=25978 fps= 86 q=-0.0 size=N/A time=00:18:03.49 bitrate=N/A speed=3.58x    frame=26023 fps= 86 q=-0.0 size=N/A time=00:18:05.37 bitrate=N/A speed=3.58x    frame=26066 fps= 86 q=-0.0 size=N/A time=00:18:07.16 bitrate=N/A speed=3.58x    frame=26108 fps= 86 q=-0.0 size=N/A time=00:18:08.92 bitrate=N/A speed=3.58x    frame=26155 fps= 86 q=-0.0 size=N/A time=00:18:10.88 bitrate=N/A speed=3.58x    frame=26199 fps= 86 q=-0.0 size=N/A time=00:18:12.71 bitrate=N/A speed=3.58x    frame=26243 fps= 86 q=-0.0 size=N/A time=00:18:14.55 bitrate=N/A speed=3.58x    frame=26287 fps= 86 q=-0.0 size=N/A time=00:18:16.38 bitrate=N/A speed=3.58x    frame=26331 fps= 86 q=-0.0 size=N/A time=00:18:18.22 bitrate=N/A speed=3.58x    frame=26376 fps= 86 q=-0.0 size=N/A time=00:18:20.09 bitrate=N/A speed=3.58x    frame=26420 fps= 86 q=-0.0 size=N/A time=00:18:21.93 bitrate=N/A speed=3.58x    frame=26464 fps= 86 q=-0.0 size=N/A time=00:18:23.76 bitrate=N/A speed=3.58x    frame=26507 fps= 86 q=-0.0 size=N/A time=00:18:25.56 bitrate=N/A speed=3.58x    frame=26552 fps= 86 q=-0.0 size=N/A time=00:18:27.43 bitrate=N/A speed=3.58x    frame=26592 fps= 86 q=-0.0 size=N/A time=00:18:29.10 bitrate=N/A speed=3.58x    frame=26638 fps= 86 q=-0.0 size=N/A time=00:18:31.02 bitrate=N/A speed=3.58x    frame=26677 fps= 86 q=-0.0 size=N/A time=00:18:32.65 bitrate=N/A speed=3.58x    frame=26721 fps= 86 q=-0.0 size=N/A time=00:18:34.48 bitrate=N/A speed=3.58x    frame=26765 fps= 86 q=-0.0 size=N/A time=00:18:36.32 bitrate=N/A speed=3.58x    frame=26809 fps= 86 q=-0.0 size=N/A time=00:18:38.15 bitrate=N/A speed=3.58x    frame=26852 fps= 86 q=-0.0 size=N/A time=00:18:39.95 bitrate=N/A speed=3.58x    frame=26897 fps= 86 q=-0.0 size=N/A time=00:18:41.82 bitrate=N/A speed=3.58x    frame=26938 fps= 86 q=-0.0 size=N/A time=00:18:43.53 bitrate=N/A speed=3.58x    frame=26983 fps= 86 q=-0.0 size=N/A time=00:18:45.41 bitrate=N/A speed=3.58x    frame=27030 fps= 86 q=-0.0 size=N/A time=00:18:47.37 bitrate=N/A speed=3.58x    frame=27074 fps= 86 q=-0.0 size=N/A time=00:18:49.21 bitrate=N/A speed=3.58x    frame=27116 fps= 86 q=-0.0 size=N/A time=00:18:50.96 bitrate=N/A speed=3.58x    frame=27161 fps= 86 q=-0.0 size=N/A time=00:18:52.84 bitrate=N/A speed=3.58x    frame=27203 fps= 86 q=-0.0 size=N/A time=00:18:54.59 bitrate=N/A speed=3.58x    frame=27245 fps= 86 q=-0.0 size=N/A time=00:18:56.34 bitrate=N/A speed=3.58x    frame=27289 fps= 86 q=-0.0 size=N/A time=00:18:58.17 bitrate=N/A speed=3.58x    frame=27331 fps= 86 q=-0.0 size=N/A time=00:18:59.93 bitrate=N/A speed=3.58x    frame=27375 fps= 86 q=-0.0 size=N/A time=00:19:01.76 bitrate=N/A speed=3.57x    frame=27418 fps= 86 q=-0.0 size=N/A time=00:19:03.55 bitrate=N/A speed=3.57x    frame=27463 fps= 86 q=-0.0 size=N/A time=00:19:05.43 bitrate=N/A speed=3.57x    frame=27505 fps= 86 q=-0.0 size=N/A time=00:19:07.18 bitrate=N/A speed=3.57x    frame=27549 fps= 86 q=-0.0 size=N/A time=00:19:09.02 bitrate=N/A speed=3.57x    frame=27593 fps= 86 q=-0.0 size=N/A time=00:19:10.85 bitrate=N/A speed=3.57x    frame=27639 fps= 86 q=-0.0 size=N/A time=00:19:12.77 bitrate=N/A speed=3.57x    frame=27683 fps= 86 q=-0.0 size=N/A time=00:19:14.61 bitrate=N/A speed=3.57x    frame=27728 fps= 86 q=-0.0 size=N/A time=00:19:16.48 bitrate=N/A speed=3.57x    frame=27772 fps= 86 q=-0.0 size=N/A time=00:19:18.32 bitrate=N/A speed=3.57x    frame=27817 fps= 86 q=-0.0 size=N/A time=00:19:20.20 bitrate=N/A speed=3.57x    frame=27863 fps= 86 q=-0.0 size=N/A time=00:19:22.11 bitrate=N/A speed=3.58x    frame=27906 fps= 86 q=-0.0 size=N/A time=00:19:23.91 bitrate=N/A speed=3.57x    frame=27950 fps= 86 q=-0.0 size=N/A time=00:19:25.74 bitrate=N/A speed=3.57x    frame=27993 fps= 86 q=-0.0 size=N/A time=00:19:27.54 bitrate=N/A speed=3.57x    frame=28038 fps= 86 q=-0.0 size=N/A time=00:19:29.41 bitrate=N/A speed=3.57x    frame=28083 fps= 86 q=-0.0 size=N/A time=00:19:31.29 bitrate=N/A speed=3.57x    frame=28124 fps= 86 q=-0.0 size=N/A time=00:19:33.00 bitrate=N/A speed=3.57x    frame=28168 fps= 86 q=-0.0 size=N/A time=00:19:34.84 bitrate=N/A speed=3.57x    frame=28210 fps= 86 q=-0.0 size=N/A time=00:19:36.59 bitrate=N/A speed=3.57x    frame=28253 fps= 86 q=-0.0 size=N/A time=00:19:38.38 bitrate=N/A speed=3.57x    frame=28296 fps= 86 q=-0.0 size=N/A time=00:19:40.17 bitrate=N/A speed=3.57x    frame=28340 fps= 86 q=-0.0 size=N/A time=00:19:42.01 bitrate=N/A speed=3.57x    frame=28385 fps= 86 q=-0.0 size=N/A time=00:19:43.89 bitrate=N/A speed=3.57x    frame=28429 fps= 86 q=-0.0 size=N/A time=00:19:45.72 bitrate=N/A speed=3.57x    frame=28474 fps= 86 q=-0.0 size=N/A time=00:19:47.60 bitrate=N/A speed=3.57x    frame=28515 fps= 86 q=-0.0 size=N/A time=00:19:49.31 bitrate=N/A speed=3.57x    frame=28559 fps= 86 q=-0.0 size=N/A time=00:19:51.14 bitrate=N/A speed=3.57x    frame=28603 fps= 86 q=-0.0 size=N/A time=00:19:52.98 bitrate=N/A speed=3.57x    frame=28647 fps= 86 q=-0.0 size=N/A time=00:19:54.81 bitrate=N/A speed=3.57x    frame=28691 fps= 86 q=-0.0 size=N/A time=00:19:56.65 bitrate=N/A speed=3.57x    frame=28736 fps= 86 q=-0.0 size=N/A time=00:19:58.53 bitrate=N/A speed=3.57x    frame=28781 fps= 86 q=-0.0 size=N/A time=00:20:00.40 bitrate=N/A speed=3.57x    frame=28829 fps= 86 q=-0.0 size=N/A time=00:20:02.40 bitrate=N/A speed=3.57x    frame=28873 fps= 86 q=-0.0 size=N/A time=00:20:04.24 bitrate=N/A speed=3.57x    frame=28919 fps= 86 q=-0.0 size=N/A time=00:20:06.16 bitrate=N/A speed=3.57x    frame=28962 fps= 86 q=-0.0 size=N/A time=00:20:07.95 bitrate=N/A speed=3.57x    frame=29008 fps= 86 q=-0.0 size=N/A time=00:20:09.87 bitrate=N/A speed=3.57x    frame=29050 fps= 86 q=-0.0 size=N/A time=00:20:11.62 bitrate=N/A speed=3.57x    frame=29095 fps= 86 q=-0.0 size=N/A time=00:20:13.50 bitrate=N/A speed=3.57x    frame=29139 fps= 86 q=-0.0 size=N/A time=00:20:15.33 bitrate=N/A speed=3.57x    frame=29180 fps= 86 q=-0.0 size=N/A time=00:20:17.04 bitrate=N/A speed=3.57x    frame=29225 fps= 86 q=-0.0 size=N/A time=00:20:18.92 bitrate=N/A speed=3.57x    frame=29271 fps= 86 q=-0.0 size=N/A time=00:20:20.84 bitrate=N/A speed=3.57x    frame=29312 fps= 86 q=-0.0 size=N/A time=00:20:22.55 bitrate=N/A speed=3.57x    frame=29357 fps= 86 q=-0.0 size=N/A time=00:20:24.43 bitrate=N/A speed=3.57x    frame=29392 fps= 86 q=-0.0 size=N/A time=00:20:25.89 bitrate=N/A speed=3.57x    frame=29435 fps= 86 q=-0.0 size=N/A time=00:20:27.68 bitrate=N/A speed=3.57x    frame=29476 fps= 86 q=-0.0 size=N/A time=00:20:29.39 bitrate=N/A speed=3.57x    frame=29519 fps= 86 q=-0.0 size=N/A time=00:20:31.18 bitrate=N/A speed=3.57x    frame=29562 fps= 86 q=-0.0 size=N/A time=00:20:32.98 bitrate=N/A speed=3.57x    frame=29606 fps= 86 q=-0.0 size=N/A time=00:20:34.81 bitrate=N/A speed=3.57x    frame=29649 fps= 86 q=-0.0 size=N/A time=00:20:36.61 bitrate=N/A speed=3.57x    frame=29694 fps= 86 q=-0.0 size=N/A time=00:20:38.48 bitrate=N/A speed=3.57x    frame=29739 fps= 86 q=-0.0 size=N/A time=00:20:40.36 bitrate=N/A speed=3.57x    frame=29782 fps= 86 q=-0.0 size=N/A time=00:20:42.15 bitrate=N/A speed=3.57x    frame=29824 fps= 86 q=-0.0 size=N/A time=00:20:43.90 bitrate=N/A speed=3.57x    frame=29864 fps= 86 q=-0.0 size=N/A time=00:20:45.57 bitrate=N/A speed=3.57x    frame=29907 fps= 86 q=-0.0 size=N/A time=00:20:47.37 bitrate=N/A speed=3.57x    frame=29951 fps= 86 q=-0.0 size=N/A time=00:20:49.20 bitrate=N/A speed=3.57x    frame=29992 fps= 86 q=-0.0 size=N/A time=00:20:50.91 bitrate=N/A speed=3.57x    frame=30034 fps= 86 q=-0.0 size=N/A time=00:20:52.66 bitrate=N/A speed=3.57x    frame=30079 fps= 86 q=-0.0 size=N/A time=00:20:54.54 bitrate=N/A speed=3.57x    frame=30123 fps= 86 q=-0.0 size=N/A time=00:20:56.38 bitrate=N/A speed=3.57x    frame=30167 fps= 86 q=-0.0 size=N/A time=00:20:58.21 bitrate=N/A speed=3.57x    frame=30209 fps= 86 q=-0.0 size=N/A time=00:20:59.96 bitrate=N/A speed=3.57x    frame=30253 fps= 86 q=-0.0 size=N/A time=00:21:01.80 bitrate=N/A speed=3.57x    frame=30295 fps= 86 q=-0.0 size=N/A time=00:21:03.55 bitrate=N/A speed=3.57x    frame=30339 fps= 86 q=-0.0 size=N/A time=00:21:05.38 bitrate=N/A speed=3.57x    frame=30384 fps= 86 q=-0.0 size=N/A time=00:21:07.26 bitrate=N/A speed=3.57x    frame=30428 fps= 86 q=-0.0 size=N/A time=00:21:09.10 bitrate=N/A speed=3.57x    frame=30470 fps= 86 q=-0.0 size=N/A time=00:21:10.85 bitrate=N/A speed=3.57x    frame=30513 fps= 86 q=-0.0 size=N/A time=00:21:12.64 bitrate=N/A speed=3.57x    frame=30554 fps= 86 q=-0.0 size=N/A time=00:21:14.35 bitrate=N/A speed=3.57x    frame=30599 fps= 86 q=-0.0 size=N/A time=00:21:16.23 bitrate=N/A speed=3.57x    frame=30643 fps= 86 q=-0.0 size=N/A time=00:21:18.06 bitrate=N/A speed=3.57x    frame=30689 fps= 86 q=-0.0 size=N/A time=00:21:19.98 bitrate=N/A speed=3.57x    frame=30729 fps= 86 q=-0.0 size=N/A time=00:21:21.65 bitrate=N/A speed=3.57x    frame=30772 fps= 86 q=-0.0 size=N/A time=00:21:23.44 bitrate=N/A speed=3.57x    frame=30814 fps= 86 q=-0.0 size=N/A time=00:21:25.20 bitrate=N/A speed=3.57x    frame=30858 fps= 86 q=-0.0 size=N/A time=00:21:27.03 bitrate=N/A speed=3.57x    frame=30901 fps= 86 q=-0.0 size=N/A time=00:21:28.82 bitrate=N/A speed=3.57x    frame=30943 fps= 86 q=-0.0 size=N/A time=00:21:30.58 bitrate=N/A speed=3.57x    frame=30985 fps= 86 q=-0.0 size=N/A time=00:21:32.33 bitrate=N/A speed=3.57x    frame=31028 fps= 86 q=-0.0 size=N/A time=00:21:34.12 bitrate=N/A speed=3.57x    frame=31071 fps= 86 q=-0.0 size=N/A time=00:21:35.91 bitrate=N/A speed=3.57x    frame=31114 fps= 86 q=-0.0 size=N/A time=00:21:37.71 bitrate=N/A speed=3.57x    frame=31159 fps= 86 q=-0.0 size=N/A time=00:21:39.58 bitrate=N/A speed=3.57x    frame=31205 fps= 86 q=-0.0 size=N/A time=00:21:41.50 bitrate=N/A speed=3.57x    frame=31248 fps= 86 q=-0.0 size=N/A time=00:21:43.30 bitrate=N/A speed=3.57x    frame=31293 fps= 86 q=-0.0 size=N/A time=00:21:45.17 bitrate=N/A speed=3.57x    frame=31337 fps= 86 q=-0.0 size=N/A time=00:21:47.01 bitrate=N/A speed=3.57x    frame=31381 fps= 86 q=-0.0 size=N/A time=00:21:48.84 bitrate=N/A speed=3.57x    frame=31427 fps= 86 q=-0.0 size=N/A time=00:21:50.76 bitrate=N/A speed=3.57x    frame=31470 fps= 86 q=-0.0 size=N/A time=00:21:52.56 bitrate=N/A speed=3.57x    frame=31512 fps= 86 q=-0.0 size=N/A time=00:21:54.31 bitrate=N/A speed=3.57x    frame=31555 fps= 86 q=-0.0 size=N/A time=00:21:56.10 bitrate=N/A speed=3.57x    frame=31602 fps= 86 q=-0.0 size=N/A time=00:21:58.06 bitrate=N/A speed=3.57x    frame=31645 fps= 86 q=-0.0 size=N/A time=00:21:59.86 bitrate=N/A speed=3.57x    frame=31689 fps= 86 q=-0.0 size=N/A time=00:22:01.69 bitrate=N/A speed=3.57x    frame=31732 fps= 86 q=-0.0 size=N/A time=00:22:03.48 bitrate=N/A speed=3.57x    frame=31776 fps= 86 q=-0.0 size=N/A time=00:22:05.32 bitrate=N/A speed=3.57x    frame=31819 fps= 86 q=-0.0 size=N/A time=00:22:07.11 bitrate=N/A speed=3.57x    frame=31863 fps= 86 q=-0.0 size=N/A time=00:22:08.95 bitrate=N/A speed=3.57x    frame=31905 fps= 86 q=-0.0 size=N/A time=00:22:10.70 bitrate=N/A speed=3.57x    frame=31950 fps= 86 q=-0.0 size=N/A time=00:22:12.58 bitrate=N/A speed=3.57x    frame=31993 fps= 86 q=-0.0 size=N/A time=00:22:14.37 bitrate=N/A speed=3.57x    frame=32038 fps= 86 q=-0.0 size=N/A time=00:22:16.25 bitrate=N/A speed=3.57x    frame=32081 fps= 86 q=-0.0 size=N/A time=00:22:18.04 bitrate=N/A speed=3.57x    frame=32124 fps= 86 q=-0.0 size=N/A time=00:22:19.83 bitrate=N/A speed=3.57x    frame=32169 fps= 86 q=-0.0 size=N/A time=00:22:21.71 bitrate=N/A speed=3.57x    frame=32215 fps= 86 q=-0.0 size=N/A time=00:22:23.63 bitrate=N/A speed=3.57x    frame=32257 fps= 86 q=-0.0 size=N/A time=00:22:25.38 bitrate=N/A speed=3.57x    frame=32300 fps= 86 q=-0.0 size=N/A time=00:22:27.17 bitrate=N/A speed=3.57x    frame=32343 fps= 86 q=-0.0 size=N/A time=00:22:28.97 bitrate=N/A speed=3.57x    frame=32385 fps= 86 q=-0.0 size=N/A time=00:22:30.72 bitrate=N/A speed=3.57x    frame=32429 fps= 86 q=-0.0 size=N/A time=00:22:32.55 bitrate=N/A speed=3.57x    frame=32473 fps= 86 q=-0.0 size=N/A time=00:22:34.39 bitrate=N/A speed=3.57x    frame=32517 fps= 86 q=-0.0 size=N/A time=00:22:36.22 bitrate=N/A speed=3.57x    frame=32560 fps= 86 q=-0.0 size=N/A time=00:22:38.02 bitrate=N/A speed=3.57x    frame=32605 fps= 86 q=-0.0 size=N/A time=00:22:39.90 bitrate=N/A speed=3.57x    frame=32649 fps= 86 q=-0.0 size=N/A time=00:22:41.73 bitrate=N/A speed=3.57x    frame=32693 fps= 86 q=-0.0 size=N/A time=00:22:43.57 bitrate=N/A speed=3.57x    frame=32736 fps= 86 q=-0.0 size=N/A time=00:22:45.36 bitrate=N/A speed=3.57x    frame=32779 fps= 86 q=-0.0 size=N/A time=00:22:47.15 bitrate=N/A speed=3.57x    frame=32823 fps= 86 q=-0.0 size=N/A time=00:22:48.99 bitrate=N/A speed=3.57x    frame=32869 fps= 86 q=-0.0 size=N/A time=00:22:50.91 bitrate=N/A speed=3.57x    frame=32910 fps= 86 q=-0.0 size=N/A time=00:22:52.62 bitrate=N/A speed=3.57x    frame=32955 fps= 86 q=-0.0 size=N/A time=00:22:54.49 bitrate=N/A speed=3.57x    frame=33000 fps= 86 q=-0.0 size=N/A time=00:22:56.37 bitrate=N/A speed=3.57x    frame=33039 fps= 85 q=-0.0 size=N/A time=00:22:58.00 bitrate=N/A speed=3.57x    frame=33083 fps= 85 q=-0.0 size=N/A time=00:22:59.83 bitrate=N/A speed=3.57x    frame=33127 fps= 85 q=-0.0 size=N/A time=00:23:01.67 bitrate=N/A speed=3.57x    frame=33171 fps= 85 q=-0.0 size=N/A time=00:23:03.50 bitrate=N/A speed=3.57x    frame=33212 fps= 85 q=-0.0 size=N/A time=00:23:05.21 bitrate=N/A speed=3.57x    frame=33248 fps= 85 q=-0.0 size=N/A time=00:23:06.71 bitrate=N/A speed=3.56x    frame=33287 fps= 85 q=-0.0 size=N/A time=00:23:08.34 bitrate=N/A speed=3.56x    frame=33331 fps= 85 q=-0.0 size=N/A time=00:23:10.18 bitrate=N/A speed=3.56x    frame=33378 fps= 85 q=-0.0 size=N/A time=00:23:12.14 bitrate=N/A speed=3.56x    frame=33425 fps= 85 q=-0.0 size=N/A time=00:23:14.10 bitrate=N/A speed=3.56x    frame=33471 fps= 85 q=-0.0 size=N/A time=00:23:16.01 bitrate=N/A speed=3.57x    frame=33518 fps= 85 q=-0.0 size=N/A time=00:23:17.97 bitrate=N/A speed=3.57x    frame=33564 fps= 85 q=-0.0 size=N/A time=00:23:19.89 bitrate=N/A speed=3.57x    frame=33608 fps= 85 q=-0.0 size=N/A time=00:23:21.73 bitrate=N/A speed=3.57x    frame=33654 fps= 85 q=-0.0 size=N/A time=00:23:23.65 bitrate=N/A speed=3.57x    frame=33701 fps= 85 q=-0.0 size=N/A time=00:23:25.61 bitrate=N/A speed=3.57x    frame=33747 fps= 86 q=-0.0 size=N/A time=00:23:27.53 bitrate=N/A speed=3.57x    frame=33794 fps= 86 q=-0.0 size=N/A time=00:23:29.49 bitrate=N/A speed=3.57x    frame=33840 fps= 86 q=-0.0 size=N/A time=00:23:31.41 bitrate=N/A speed=3.57x    frame=33883 fps= 86 q=-0.0 size=N/A time=00:23:33.20 bitrate=N/A speed=3.57x    frame=33931 fps= 86 q=-0.0 size=N/A time=00:23:35.20 bitrate=N/A speed=3.57x    frame=33976 fps= 86 q=-0.0 size=N/A time=00:23:37.08 bitrate=N/A speed=3.57x    frame=34023 fps= 86 q=-0.0 size=N/A time=00:23:39.04 bitrate=N/A speed=3.57x    frame=34070 fps= 86 q=-0.0 size=N/A time=00:23:41.00 bitrate=N/A speed=3.57x    frame=34116 fps= 86 q=-0.0 size=N/A time=00:23:42.92 bitrate=N/A speed=3.57x    frame=34163 fps= 86 q=-0.0 size=N/A time=00:23:44.88 bitrate=N/A speed=3.57x    frame=34208 fps= 86 q=-0.0 size=N/A time=00:23:46.75 bitrate=N/A speed=3.57x    frame=34254 fps= 86 q=-0.0 size=N/A time=00:23:48.67 bitrate=N/A speed=3.57x    frame=34299 fps= 86 q=-0.0 size=N/A time=00:23:50.55 bitrate=N/A speed=3.57x    frame=34345 fps= 86 q=-0.0 size=N/A time=00:23:52.47 bitrate=N/A speed=3.57x    frame=34391 fps= 86 q=-0.0 size=N/A time=00:23:54.39 bitrate=N/A speed=3.57x    frame=34437 fps= 86 q=-0.0 size=N/A time=00:23:56.30 bitrate=N/A speed=3.57x    frame=34483 fps= 86 q=-0.0 size=N/A time=00:23:58.22 bitrate=N/A speed=3.57x    frame=34529 fps= 86 q=-0.0 size=N/A time=00:24:00.14 bitrate=N/A speed=3.57x    frame=34574 fps= 86 q=-0.0 size=N/A time=00:24:02.02 bitrate=N/A speed=3.57x    frame=34620 fps= 86 q=-0.0 size=N/A time=00:24:03.94 bitrate=N/A speed=3.57x    frame=34666 fps= 86 q=-0.0 size=N/A time=00:24:05.86 bitrate=N/A speed=3.57x    frame=34712 fps= 86 q=-0.0 size=N/A time=00:24:07.77 bitrate=N/A speed=3.57x    frame=34757 fps= 86 q=-0.0 size=N/A time=00:24:09.65 bitrate=N/A speed=3.57x    frame=34802 fps= 86 q=-0.0 size=N/A time=00:24:11.53 bitrate=N/A speed=3.57x    frame=34849 fps= 86 q=-0.0 size=N/A time=00:24:13.49 bitrate=N/A speed=3.57x    frame=34894 fps= 86 q=-0.0 size=N/A time=00:24:15.37 bitrate=N/A speed=3.57x    frame=34938 fps= 86 q=-0.0 size=N/A time=00:24:17.20 bitrate=N/A speed=3.57x    frame=34986 fps= 86 q=-0.0 size=N/A time=00:24:19.20 bitrate=N/A speed=3.57x    frame=35030 fps= 86 q=-0.0 size=N/A time=00:24:21.04 bitrate=N/A speed=3.57x    frame=35074 fps= 86 q=-0.0 size=N/A time=00:24:22.87 bitrate=N/A speed=3.57x    frame=35122 fps= 86 q=-0.0 size=N/A time=00:24:24.88 bitrate=N/A speed=3.57x    frame=35168 fps= 86 q=-0.0 size=N/A time=00:24:26.79 bitrate=N/A speed=3.57x    frame=35212 fps= 86 q=-0.0 size=N/A time=00:24:28.63 bitrate=N/A speed=3.57x    frame=35259 fps= 86 q=-0.0 size=N/A time=00:24:30.59 bitrate=N/A speed=3.57x    frame=35304 fps= 86 q=-0.0 size=N/A time=00:24:32.47 bitrate=N/A speed=3.57x    frame=35351 fps= 86 q=-0.0 size=N/A time=00:24:34.43 bitrate=N/A speed=3.57x    frame=35394 fps= 86 q=-0.0 size=N/A time=00:24:36.22 bitrate=N/A speed=3.57x    frame=35441 fps= 86 q=-0.0 size=N/A time=00:24:38.18 bitrate=N/A speed=3.57x    frame=35485 fps= 86 q=-0.0 size=N/A time=00:24:40.02 bitrate=N/A speed=3.57x    frame=35530 fps= 86 q=-0.0 size=N/A time=00:24:41.89 bitrate=N/A speed=3.57x    frame=35573 fps= 86 q=-0.0 size=N/A time=00:24:43.69 bitrate=N/A speed=3.57x    frame=35616 fps= 86 q=-0.0 size=N/A time=00:24:45.48 bitrate=N/A speed=3.57x    [Parsed_libvmaf_10 @ 0000023cb25a56c0] VMAF score: 95.184798
[out#0/null @ 0000023c9c213000] video:15314KiB audio:278820KiB subtitle:0KiB other streams:0KiB global headers:0KiB muxing overhead: unknown
frame=35641 fps= 85 q=-0.0 Lsize=N/A time=00:24:46.52 bitrate=N/A speed=3.56x    
